<?xml version="1.0" encoding="UTF-8"?>
<svg width="928px" height="522px" viewBox="0 0 928 522" version="1.1" xmlns="http://www.w3.org/2000/svg" xmlns:xlink="http://www.w3.org/1999/xlink">
    <!-- Generator: Sketch 55.1 (78136) - https://sketchapp.com -->
    <title>Group 4</title>
    <desc>Created with Sketch.</desc>
    <defs>
        <polygon id="path-1" points="18 6 16.59 7.41 24.17 15 3 15 3 17 24.17 17 16.59 24.59 18 26 28 16"></polygon>
    </defs>
    <g id="IDR" stroke="none" stroke-width="1" fill="none" fill-rule="evenodd">
        <g id="IBM-Design-Language-—-Color-UI" transform="translate(-351.000000, -3479.000000)">
            <g id="Group-4" transform="translate(351.000000, 3479.000000)">
                <g id="Group-7">
                    <rect id="Rectangle" fill="#FFFFFF" x="0" y="0" width="447" height="447"></rect>
                    <g id="Group-3" transform="translate(56.000000, 80.632943)">
                        <path d="M271.625,1.37277541 L271.625,78.1453925 L334.792343,32.5680774 L271.625,1.37277541 Z" id="Path-4" stroke="#060606" stroke-width="1.25"></path>
                        <polygon id="Path-5" fill="#171717" points="246 192.367057 336 98.3539442 263.159467 87.3670569"></polygon>
                        <polygon id="Path-7" stroke="#020202" stroke-width="5" points="336 267.771776 306.723722 158.367057 292 280.367057"></polygon>
                        <path d="M1.7287304,136.079038 L97.7985966,161.404004 L67.1988863,102.20944 L1.7287304,136.079038 Z" id="Path-9" stroke="#060606" stroke-width="1.25"></path>
                        <polygon id="Path-10" fill="#171717" points="78 78.3670569 136 194.367057 136 78.3670569"></polygon>
                        <polygon id="Path-11" fill="#171717" points="220 92.3670569 202.371211 2.36705686 137 58.5869247"></polygon>
                        <path d="M123.625,204.056593 L123.625,271.541689 L187.495961,278.572714 L123.625,204.056593 Z" id="Path-12" stroke="#060606" stroke-width="1.25"></path>
                        <polygon id="Path-13" stroke="#020202" stroke-width="5" points="0 218.367057 58.0143326 279.367057 105 235.397697"></polygon>
                        <path d="M114.672658,166.411537 L177.908846,210.06417 L285.92908,184.565392 L114.672658,166.411537 Z" id="Path-15" stroke="#060606" stroke-width="1.25" transform="translate(200.970570, 188.133733) rotate(-107.000000) translate(-200.970570, -188.133733) "></path>
                        <polygon id="Path-17" stroke="#020202" stroke-width="5" transform="translate(41.197923, 44.974530) rotate(94.000000) translate(-41.197923, -44.974530) " points="1.64281432 10.2022779 80.7532666 79.7465138 1.64257867 79.7467819"></polygon>
                    </g>
                </g>
                <rect id="Rectangle" fill="#171717" x="0" y="0" width="928" height="522"></rect>
                <g id="Group-31" transform="translate(576.000000, 178.000000)" fill="#FFFFFF">
                    <g id="Group-30">
                        <path d="M14.568125,184.281394 C8.5473125,184.2712 3.6776875,179.398684 3.6675,173.374297 C3.6776875,167.34991 8.5473125,162.477394 14.568125,162.4672 C20.5889375,162.477394 25.4585625,167.34991 25.46875,173.374297 C25.4585625,179.398684 20.5889375,184.2712 14.568125,184.281394 M14.568125,158.797523 C6.52,158.797523 0,165.321394 0,173.374297 C0,181.422103 6.52,187.951071 14.568125,187.951071 C22.61625,187.951071 29.13625,181.422103 29.13625,173.374297 C29.13625,165.321394 22.61625,158.797523 14.568125,158.797523" id="Fill-2"></path>
                        <path d="M144.478608,189.712278 L158.700358,175.482085 L163.911265,194.921182 L144.478608,189.712278 Z M168.276608,197.04144 L161.425515,171.46073 C161.252327,170.82873 160.758233,170.334343 160.126608,170.166149 C159.494983,169.992859 158.817515,170.176343 158.359077,170.640149 L139.639546,189.365698 C139.176015,189.829504 138.997733,190.502278 139.165827,191.139375 C139.333921,191.771375 139.828015,192.265762 140.45964,192.433956 L166.030265,199.289117 C166.66189,199.457311 167.339358,199.273827 167.80289,198.815117 C168.266421,198.351311 168.444702,197.67344 168.276608,197.04144 L168.276608,197.04144 Z" id="Fill-4"></path>
                        <path d="M25.8413438,150.038452 C20.7730625,150.028258 16.6725938,145.925355 16.6624063,140.854065 C16.6725938,135.782774 20.7730625,131.679871 25.8413438,131.669677 C30.909625,131.679871 35.0100938,135.782774 35.0202813,140.854065 C35.0100938,145.925355 30.909625,150.028258 25.8413438,150.038452 M38.6826875,140.854065 C38.6826875,133.759355 32.9369375,128 25.8413438,128 C18.74575,128 13,133.759355 13,140.854065 C13,147.953871 18.74575,153.708129 25.8413438,153.708129 C32.9369375,153.708129 38.6826875,147.953871 38.6826875,140.854065" id="Fill-6"></path>
                        <path d="M47.8413438,186.038452 C42.7730625,186.028258 38.6725937,181.925355 38.6624063,176.854065 C38.6725937,171.782774 42.7730625,167.679871 47.8413438,167.669677 C52.909625,167.679871 57.0100938,171.782774 57.0202813,176.854065 C57.0100938,181.925355 52.909625,186.028258 47.8413438,186.038452 M60.6826875,176.854065 C60.6826875,169.759355 54.9369375,164 47.8413438,164 C40.74575,164 35,169.759355 35,176.854065 C35,183.953871 40.74575,189.708129 47.8413438,189.708129 C54.9369375,189.708129 60.6826875,183.953871 60.6826875,176.854065" id="Fill-6"></path>
                        <path d="M99.6321055,65.1026523 L76.3383867,51.6471685 L89.7858867,28.3396201 L113.079605,41.7951039 L99.6321055,65.1026523 Z M90.0354805,24.2469104 C89.617793,24.0022652 89.108418,23.9360072 88.639793,24.0634265 C88.1762617,24.1857491 87.7687617,24.4966523 87.5293555,24.9145878 L72.2481055,51.4025233 C71.7387305,52.2791685 72.0392617,53.4004588 72.9153867,53.9050394 L99.3876055,69.195362 C99.805293,69.4400072 100.309574,69.5062652 100.778199,69.3788459 C101.24173,69.2565233 101.64923,68.9456201 101.89373,68.5276846 L117.17498,42.0448459 C117.414387,41.6218136 117.480605,41.117233 117.353262,40.6483297 C117.231012,40.1845233 116.920293,39.7767814 116.502605,39.537233 L90.0354805,24.2469104 Z" id="Fill-8"></path>
                        <path d="M55.7530902,5.03563646 L64.3819027,21.4931203 L47.9392777,30.1270558 L39.3053715,13.6695719 L55.7530902,5.03563646 Z M45.5452152,33.4552494 C46.0138402,34.3522816 47.1242777,34.6988623 48.0207777,34.229959 L67.7132152,23.8886042 C68.1410902,23.6643461 68.4670902,23.2718945 68.6097152,22.8080881 C68.7523402,22.3442816 68.7064965,21.8346042 68.4823715,21.4064752 L58.1471527,1.70744291 C57.6785277,0.810410654 56.5680902,0.463830009 55.6715902,0.932733234 L35.9791527,11.2740881 C35.0826527,11.7429913 34.7413715,12.8540881 35.2099965,13.7511203 L45.5452152,33.4552494 Z" id="Fill-12"></path>
                        <path d="M184.183569,138.864652 L181.611225,167.707297 L157.935475,151.056135 L184.183569,138.864652 Z M182.100225,172.533942 C182.635069,172.9162 183.332913,172.977361 183.923788,172.702135 C184.519757,172.421813 184.922163,171.850974 184.978194,171.198587 L188.115944,136.025748 C188.177069,135.373361 187.881632,134.736265 187.346788,134.3642 C186.811944,133.981942 186.1141,133.920781 185.523225,134.196006 L153.5141,149.063297 C152.918132,149.338523 152.515725,149.909361 152.4546,150.561748 C152.398569,151.219232 152.694007,151.851232 153.22885,152.228394 L182.100225,172.533942 Z" id="Fill-14" transform="translate(170.285861, 153.449071) rotate(24.000000) translate(-170.285861, -153.449071) "></path>
                        <path d="M180.773009,189.460314 L194.994759,175.230121 L200.205665,194.669218 L180.773009,189.460314 Z M196.421009,169.914185 C195.789384,169.740895 195.111915,169.924379 194.653478,170.388185 L175.933947,189.113734 C175.470415,189.57754 175.292134,190.250314 175.460228,190.887411 C175.628322,191.519411 176.122415,192.013798 176.75404,192.181992 L202.324665,199.037153 C202.95629,199.210443 203.633759,199.02696 204.09729,198.563153 C204.560822,198.099347 204.739103,197.426572 204.571009,196.789476 L197.719915,171.208766 C197.546728,170.576766 197.052634,170.082379 196.421009,169.914185 L196.421009,169.914185 Z" id="Fill-16"></path>
                        <path d="M195.901716,104.719558 L191.500716,128.011816 L173.540153,112.5533 L195.901716,104.719558 Z M191.515997,132.869042 C192.015185,133.297171 192.702841,133.424591 193.319185,133.210526 C193.935528,132.991365 194.393966,132.4613 194.516216,131.819107 L200.098966,102.278204 C200.216122,101.63601 199.986903,100.973429 199.49281,100.5453 C198.993622,100.117171 198.305966,99.989752 197.689622,100.203816 L169.332716,110.137429 C168.716372,110.356591 168.257935,110.886655 168.135685,111.528849 C168.013435,112.176139 168.247747,112.833623 168.741841,113.261752 L191.515997,132.869042 Z" id="Fill-22"></path>
                        <path d="M145.357686,5.17280539 L158.805186,28.475257 L135.516561,41.9307409 L122.069061,18.6282893 L145.357686,5.17280539 Z M133.26003,45.3557731 C133.764311,46.2324183 134.884936,46.533128 135.761061,46.0285473 L162.228186,30.7382247 C162.645874,30.4935796 162.956593,30.0909344 163.078843,29.6220312 C163.206186,29.1582247 163.139968,28.6485473 162.900561,28.2306118 L147.619311,1.74777313 C147.109936,0.871127966 145.989311,0.570418289 145.113186,1.08009571 L118.646061,16.3704183 C117.769936,16.8749989 117.469405,17.9962893 117.97878,18.8729344 L133.26003,45.3557731 Z" id="Fill-24"></path>
                        <path d="M60.568125,159.483871 C54.5473125,159.473677 49.6776875,154.601161 49.6675,148.576774 C49.6776875,142.552387 54.5473125,137.679871 60.568125,137.669677 C66.5889375,137.679871 71.4585625,142.552387 71.46875,148.576774 C71.4585625,154.601161 66.5889375,159.473677 60.568125,159.483871 M60.568125,134 C52.52,134 46,140.523871 46,148.576774 C46,156.624581 52.52,163.153548 60.568125,163.153548 C68.61625,163.153548 75.13625,156.624581 75.13625,148.576774 C75.13625,140.523871 68.61625,134 60.568125,134" id="Fill-26"></path>
                    </g>
                </g>
                <g id="Group-31" transform="translate(179.000000, 182.000000)" fill="#FFFFFF">
                    <g id="Group-30">
                        <path d="M25.568125,153.281394 C19.5473125,153.2712 14.6776875,148.398684 14.6675,142.374297 C14.6776875,136.34991 19.5473125,131.477394 25.568125,131.4672 C31.5889375,131.477394 36.4585625,136.34991 36.46875,142.374297 C36.4585625,148.398684 31.5889375,153.2712 25.568125,153.281394 M25.568125,127.797523 C17.52,127.797523 11,134.321394 11,142.374297 C11,150.422103 17.52,156.951071 25.568125,156.951071 C33.61625,156.951071 40.13625,150.422103 40.13625,142.374297 C40.13625,134.321394 33.61625,127.797523 25.568125,127.797523" id="Fill-2"></path>
                        <path d="M29.0598906,108.281465 L43.2816406,94.051271 L48.4925469,113.490368 L29.0598906,108.281465 Z M52.8578906,115.610626 L46.0067969,90.0299161 C45.8336094,89.3979161 45.3395156,88.903529 44.7078906,88.7353355 C44.0762656,88.5620452 43.3987969,88.745529 42.9403594,89.2093355 L24.2208281,107.934884 C23.7572969,108.39869 23.5790156,109.071465 23.7471094,109.708561 C23.9152031,110.340561 24.4092969,110.834948 25.0409219,111.003142 L50.6115469,117.858303 C51.2431719,118.026497 51.9206406,117.843013 52.3841719,117.384303 C52.8477031,116.920497 53.0259844,116.242626 52.8578906,115.610626 L52.8578906,115.610626 Z" id="Fill-4"></path>
                        <path d="M96.0536459,62.6103964 L110.275396,48.3802028 L115.486302,67.8192996 L96.0536459,62.6103964 Z M119.851646,69.9395577 L113.000552,44.358848 C112.827365,43.726848 112.333271,43.2324609 111.701646,43.0642674 C111.070021,42.890977 110.392552,43.0744609 109.934115,43.5382674 L91.2145834,62.2638157 C90.7510522,62.7276222 90.5727709,63.4003964 90.7408647,64.0374932 C90.9089584,64.6694932 91.4030522,65.1638803 92.0346772,65.3320738 L117.605302,72.1872351 C118.236927,72.3554287 118.914396,72.1719448 119.377927,71.7132351 C119.841458,71.2494287 120.01974,70.5715577 119.851646,69.9395577 L119.851646,69.9395577 Z" id="Fill-4" transform="translate(105.296255, 57.624327) rotate(-14.000000) translate(-105.296255, -57.624327) "></path>
                        <path d="M71.411875,82.6457097 C66.3435937,82.6355161 62.243125,78.5326129 62.2329375,73.4613226 C62.243125,68.3900323 66.3435937,64.287129 71.411875,64.2769355 C76.4801562,64.287129 80.580625,68.3900323 80.5908125,73.4613226 C80.580625,78.5326129 76.4801562,82.6355161 71.411875,82.6457097 M84.2532187,73.4613226 C84.2532187,66.3666129 78.5074687,60.6072581 71.411875,60.6072581 C64.3162812,60.6072581 58.5705312,66.3666129 58.5705312,73.4613226 C58.5705312,80.561129 64.3162812,86.3153871 71.411875,86.3153871 C78.5074687,86.3153871 84.2532187,80.561129 84.2532187,73.4613226" id="Fill-6"></path>
                        <path d="M139.841344,113.038452 C134.773062,113.028258 130.672594,108.925355 130.662406,103.854065 C130.672594,98.7827742 134.773062,94.679871 139.841344,94.6696774 C144.909625,94.679871 149.010094,98.7827742 149.020281,103.854065 C149.010094,108.925355 144.909625,113.028258 139.841344,113.038452 M152.682687,103.854065 C152.682687,96.7593548 146.936937,91 139.841344,91 C132.74575,91 127,96.7593548 127,103.854065 C127,110.953871 132.74575,116.708129 139.841344,116.708129 C146.936937,116.708129 152.682687,110.953871 152.682687,103.854065" id="Fill-6"></path>
                        <path d="M78.3806344,152.609129 L55.0869156,139.153645 L68.5344156,115.846097 L91.8281344,129.301581 L78.3806344,152.609129 Z M68.7840094,111.753387 C68.3663219,111.508742 67.8569469,111.442484 67.3883219,111.569903 C66.9247906,111.692226 66.5172906,112.003129 66.2778844,112.421065 L50.9966344,138.909 C50.4872594,139.785645 50.7877906,140.906935 51.6639156,141.411516 L78.1361344,156.701839 C78.5538219,156.946484 79.0581031,157.012742 79.5267281,156.885323 C79.9902594,156.763 80.3977594,156.452097 80.6422594,156.034161 L95.9235094,129.551323 C96.1629156,129.12829 96.2291344,128.62371 96.1017906,128.154806 C95.9795406,127.691 95.6688219,127.283258 95.2511344,127.04371 L68.7840094,111.753387 Z" id="Fill-8"></path>
                        <path d="M32.0224156,5.20379355 L40.6512281,21.6612774 L24.2086031,30.2952129 L15.5746969,13.837729 L32.0224156,5.20379355 Z M21.8145406,33.6234065 C22.2831656,34.5204387 23.3936031,34.8670194 24.2901031,34.3981161 L43.9825406,24.0567613 C44.4104156,23.8325032 44.7364156,23.4400516 44.8790406,22.9762452 C45.0216656,22.5124387 44.9758219,22.0027613 44.7516969,21.5746323 L34.4164781,1.8756 C33.9478531,0.978567742 32.8374156,0.631987097 31.9409156,1.10089032 L12.2484781,11.4422452 C11.3519781,11.9111484 11.0106969,13.0222452 11.4793219,13.9192774 L21.8145406,33.6234065 Z" id="Fill-12"></path>
                        <path d="M79.8333719,19.3340903 L77.2610281,48.1767355 L53.5852781,31.5255742 L79.8333719,19.3340903 Z M77.7500281,53.0033806 C78.2848719,53.3856387 78.9827156,53.4468 79.5735906,53.1715742 C80.1695594,52.8912516 80.5719656,52.3204129 80.6279969,51.6680258 L83.7657469,16.4951871 C83.8268719,15.8428 83.5314344,15.2057032 82.9965906,14.8336387 C82.4617469,14.4513806 81.7639031,14.3902194 81.1730281,14.6654452 L49.1639031,29.5327355 C48.5679344,29.8079613 48.1655281,30.3788 48.1044031,31.0311871 C48.0483719,31.688671 48.3438094,32.320671 48.8786531,32.6978323 L77.7500281,53.0033806 Z" id="Fill-14"></path>
                        <path d="M143.669266,147.358432 L157.891016,133.128239 L163.101922,152.567335 L143.669266,147.358432 Z M159.317266,127.812303 C158.685641,127.639013 158.008172,127.822497 157.549734,128.286303 L138.830203,147.011852 C138.366672,147.475658 138.188391,148.148432 138.356484,148.785529 C138.524578,149.417529 139.018672,149.911916 139.650297,150.08011 L165.220922,156.935271 C165.852547,157.108561 166.530016,156.925077 166.993547,156.461271 C167.457078,155.997465 167.635359,155.32469 167.467266,154.687594 L160.616172,129.106884 C160.442984,128.474884 159.948891,127.980497 159.317266,127.812303 L159.317266,127.812303 Z" id="Fill-16"></path>
                        <path d="M116.106475,88.0732645 L111.705475,111.365523 L93.7449125,95.9070065 L116.106475,88.0732645 Z M111.720756,116.222748 C112.219944,116.650877 112.9076,116.778297 113.523944,116.564232 C114.140288,116.345071 114.598725,115.815006 114.720975,115.172813 L120.303725,85.6319097 C120.420881,84.9897161 120.191663,84.3271355 119.697569,83.8990065 C119.198381,83.4708774 118.510725,83.3434581 117.894381,83.5575226 L89.537475,93.4911355 C88.9211313,93.7102968 88.4626938,94.2403613 88.3404438,94.8825548 C88.2181938,95.5298452 88.4525063,96.187329 88.9466,96.6154581 L111.720756,116.222748 Z" id="Fill-22"></path>
                        <path d="M149.567175,30.6152903 L163.014675,53.9177419 L139.72605,67.3732258 L126.27855,44.0707742 L149.567175,30.6152903 Z M137.469518,70.7982581 C137.9738,71.6749032 139.094425,71.9756129 139.97055,71.4710323 L166.437675,56.1807097 C166.855362,55.9360645 167.166081,55.5334194 167.288331,55.0645161 C167.415675,54.6007097 167.349456,54.0910323 167.11005,53.6730968 L151.8288,27.1902581 C151.319425,26.3136129 150.1988,26.0129032 149.322675,26.5225806 L122.85555,41.8129032 C121.979425,42.3174839 121.678893,43.4387742 122.188268,44.3154194 L137.469518,70.7982581 Z" id="Fill-24"></path>
                        <path d="M35.6270117,44.3409625 L49.0745117,67.6434141 L25.7858867,81.098898 L12.3383867,57.7964463 L35.6270117,44.3409625 Z M23.5293555,84.5239302 C24.0336367,85.4005754 25.1542617,85.7012851 26.0303867,85.1967044 L52.4975117,69.9063818 C52.9151992,69.6617367 53.225918,69.2590915 53.348168,68.7901883 C53.4755117,68.3263818 53.409293,67.8167044 53.1698867,67.3987689 L37.8886367,40.9159302 C37.3792617,40.0392851 36.2586367,39.7385754 35.3825117,40.2482528 L8.91538674,55.5385754 C8.03926174,56.043156 7.73873049,57.1644463 8.24810549,58.0410915 L23.5293555,84.5239302 Z" id="Fill-24" transform="translate(30.705873, 62.720699) rotate(27.000000) translate(-30.705873, -62.720699) "></path>
                        <path d="M112.161875,153.281394 C106.141063,153.2712 101.271438,148.398684 101.26125,142.374297 C101.271438,136.34991 106.141063,131.477394 112.161875,131.4672 C118.182688,131.477394 123.052312,136.34991 123.0625,142.374297 C123.052312,148.398684 118.182688,153.2712 112.161875,153.281394 M112.161875,127.797523 C104.11375,127.797523 97.59375,134.321394 97.59375,142.374297 C97.59375,150.422103 104.11375,156.951071 112.161875,156.951071 C120.21,156.951071 126.73,150.422103 126.73,142.374297 C126.73,134.321394 120.21,127.797523 112.161875,127.797523" id="Fill-26"></path>
                    </g>
                </g>
                <g id="icon/navigation/arrow/right/32" transform="translate(464.000000, 246.000000) rotate(-360.000000) translate(-464.000000, -246.000000) translate(448.000000, 230.000000)">
                    <mask id="mask-2" fill="white">
                        <use xlink:href="#path-1"></use>
                    </mask>
                    <use id="icon-color" fill="#F3F3F3" fill-rule="evenodd" xlink:href="#path-1"></use>
                </g>
                <path d="M716.374865,300.610396 L730.596615,286.380203 L735.807521,305.8193 L716.374865,300.610396 Z M740.172865,307.939558 L733.321771,282.358848 C733.148584,281.726848 732.65449,281.232461 732.022865,281.064267 C731.39124,280.890977 730.713771,281.074461 730.255334,281.538267 L711.535803,300.263816 C711.072271,300.727622 710.89399,301.400396 711.062084,302.037493 C711.230178,302.669493 711.724271,303.16388 712.355896,303.332074 L737.926521,310.187235 C738.558146,310.355429 739.235615,310.171945 739.699146,309.713235 C740.162678,309.249429 740.340959,308.571558 740.172865,307.939558 L740.172865,307.939558 Z" id="Fill-4" fill="#FFFFFF" transform="translate(725.617474, 295.624327) rotate(-14.000000) translate(-725.617474, -295.624327) "></path>
                <path d="M669.357686,156.172805 L682.805186,179.475257 L659.516561,192.930741 L646.069061,169.628289 L669.357686,156.172805 Z M657.26003,196.355773 C657.764311,197.232418 658.884936,197.533128 659.761061,197.028547 L686.228186,181.738225 C686.645874,181.49358 686.956593,181.090934 687.078843,180.622031 C687.206186,180.158225 687.139968,179.648547 686.900561,179.230612 L671.619311,152.747773 C671.109936,151.871128 669.989311,151.570418 669.113186,152.080096 L642.646061,167.370418 C641.769936,167.874999 641.469405,168.996289 641.97878,169.872934 L657.26003,196.355773 Z" id="Fill-24" fill="#FFFFFF" transform="translate(664.436548, 174.552541) rotate(27.000000) translate(-664.436548, -174.552541) "></path>
            </g>
        </g>
    </g>
</svg>