<?xml version="1.0" encoding="UTF-8"?>
<svg width="449px" height="449px" viewBox="0 0 449 449" version="1.1" xmlns="http://www.w3.org/2000/svg" xmlns:xlink="http://www.w3.org/1999/xlink">
    <!-- Generator: Sketch 55.1 (78136) - https://sketchapp.com -->
    <title>Group 28</title>
    <desc>Created with Sketch.</desc>
    <defs>
        <polygon id="path-1" points="0.368281486 0.74619678 68.1611372 0.74619678 68.1611372 74 0.368281486 74"></polygon>
        <polygon id="path-3" points="0.0335047061 0.178686243 60.9531544 0.178686243 60.9531544 46 0.0335047061 46"></polygon>
    </defs>
    <g id="IDR" stroke="none" stroke-width="1" fill="none" fill-rule="evenodd">
        <g id="Group-28">
            <g id="Group-26" fill="#171717">
                <rect id="Rectangle" transform="translate(224.500000, 224.500000) scale(-1, 1) translate(-224.500000, -224.500000) " x="0" y="0" width="449" height="449"></rect>
            </g>
            <g id="Group-23" transform="translate(92.000000, 88.000000)">
                <path d="M83.9699,10.4814 L80.5429,79.8514 L20.4049,40.6534 L83.9699,10.4814 Z M10.0509,43.4554 L82.0109,90.3574 C82.6719,90.7884 83.4319,91.0064 84.1949,91.0064 C84.8169,91.0064 85.4399,90.8614 86.0129,90.5694 C87.2879,89.9184 88.1189,88.6344 88.1899,87.2034 L92.2899,4.1984 C92.3599,2.7934 91.6859,1.4544 90.5159,0.6734 C89.3449,-0.1076 87.8509,-0.2146 86.5799,0.3874 L10.5199,36.4904 C9.2119,37.1114 8.3419,38.3904 8.2439,39.8354 C8.1469,41.2794 8.8379,42.6644 10.0509,43.4554 L10.0509,43.4554 Z" id="Fill-1" fill="#FFFFFF"></path>
                <path d="M124.8625,58.746 C125.6175,59.814 126.8395,60.438 128.1295,60.438 C128.2715,60.438 128.4155,60.431 128.5585,60.415 C130.0035,60.26 131.2495,59.333 131.8145,57.996 L153.9855,5.558 C154.6325,4.03 154.2665,2.26 153.0675,1.112 C151.8695,-0.037 150.0835,-0.324 148.5865,0.387 L104.2445,21.435 C103.1775,21.941 102.3885,22.893 102.0905,24.035 C101.7905,25.177 102.0105,26.392 102.6915,27.356 L124.8625,58.746 Z" id="Fill-3" fill="#FFFFFF"></path>
                <path d="M208.6349,159.4018 L239.7849,114.2158 L262.0349,118.5188 L208.6349,159.4018 Z M275.4309,115.3658 C275.0699,113.8328 273.8429,112.6538 272.2969,112.3548 L238.7369,105.8648 C237.1789,105.5648 235.5849,106.2138 234.6839,107.5218 L187.6989,175.6758 C186.5819,177.2968 186.8099,179.4878 188.2359,180.8448 C189.0029,181.5758 189.9959,181.9468 190.9929,181.9468 C191.8469,181.9468 192.7029,181.6748 193.4239,181.1228 L273.9689,119.4588 C275.2199,118.5008 275.7919,116.8988 275.4309,115.3658 L275.4309,115.3658 Z" id="Fill-5" fill="#FFFFFF"></path>
                <path d="M92.382,159.9057 L69.363,127.3157 L115.402,105.4627 L92.382,159.9057 Z M125.944,94.4557 C124.745,93.3067 122.959,93.0197 121.462,93.7307 L61.638,122.1267 C60.571,122.6327 59.783,123.5837 59.484,124.7257 C59.185,125.8677 59.405,127.0837 60.086,128.0477 L89.997,170.3967 C90.752,171.4647 91.974,172.0887 93.264,172.0887 C93.406,172.0887 93.55,172.0807 93.694,172.0657 C95.138,171.9097 96.384,170.9837 96.949,169.6467 L126.861,98.9017 C127.508,97.3727 127.143,95.6037 125.944,94.4557 L125.944,94.4557 Z" id="Fill-7" fill="#FFFFFF"></path>
                <path d="M218.6603,12.6616 L224.3723,43.7656 L176.5553,58.9026 L218.6603,12.6616 Z M163.5863,71.2046 C163.9883,71.2046 164.3943,71.1436 164.7933,71.0176 L230.1503,50.3276 C232.0733,49.7186 233.2423,47.7746 232.8783,45.7906 L225.0713,3.2786 C224.7963,1.7836 223.6983,0.5736 222.2363,0.1556 C220.7743,-0.2644 219.2033,0.1826 218.1793,1.3076 L160.6283,64.5116 C159.4103,65.8486 159.2423,67.8366 160.2173,69.3606 C160.9673,70.5326 162.2493,71.2046 163.5863,71.2046 L163.5863,71.2046 Z" id="Fill-9" fill="#FFFFFF"></path>
                <path d="M67.1715,175.0414 C67.4195,173.7634 67.0305,172.4444 66.1285,171.5064 L6.8835,109.8884 C5.7405,108.7004 3.9845,108.3334 2.4615,108.9684 C0.9395,109.6024 -0.0375,111.1064 0.0015,112.7554 L2.0775,199.9944 C2.1095,201.3334 2.8095,202.5674 3.9425,203.2824 C4.5905,203.6914 5.3325,203.8994 6.0765,203.8994 C6.6325,203.8994 7.1905,203.7834 7.7125,203.5494 L64.8805,177.9294 C66.0685,177.3964 66.9225,176.3194 67.1715,175.0414" id="Fill-11" fill="#FFFFFF"></path>
                <path d="M160.1183,191.3373 L124.0823,161.8413 C122.9303,160.8993 121.3483,160.6723 119.9783,161.2583 C118.6083,161.8423 117.6773,163.1403 117.5603,164.6253 L110.0193,261.0423 C109.8773,262.8653 110.9893,264.5523 112.7213,265.1413 C113.1443,265.2853 113.5783,265.3543 114.0073,265.3543 C115.3323,265.3543 116.6063,264.6943 117.3593,263.5363 L160.9363,196.6153 C162.0513,194.9043 161.6983,192.6293 160.1183,191.3373" id="Fill-13" fill="#FFFFFF"></path>
                <g id="Group-17" transform="translate(166.000000, 199.685000)">
                    <mask id="mask-2" fill="white">
                        <use xlink:href="#path-1"></use>
                    </mask>
                    <g id="Clip-16"></g>
                    <path d="M57.2863,62.8452 L12.5373,33.6782 L59.8363,11.2262 L57.2863,62.8452 Z M66.3823,1.4192 C65.2103,0.6372 63.7173,0.5302 62.4463,1.1322 L2.6533,29.5142 C1.3453,30.1352 0.4743,31.4142 0.3773,32.8592 C0.2803,34.3032 0.9713,35.6882 2.1833,36.4792 L58.7533,73.3512 C59.4143,73.7822 60.1753,74.0002 60.9373,74.0002 C61.5593,74.0002 62.1823,73.8552 62.7563,73.5632 C64.0313,72.9112 64.8623,71.6282 64.9323,70.1972 L68.1563,4.9432 C68.2253,3.5382 67.5523,2.2002 66.3823,1.4192 L66.3823,1.4192 Z" id="Fill-15" fill="#FFFFFF" mask="url(#mask-2)"></path>
                </g>
                <path d="M147.6007,132.1235 L171.4237,112.1635 L175.8987,142.2965 L147.6007,132.1235 Z M175.7507,100.7695 C174.3967,100.2555 172.8717,100.5135 171.7617,101.4435 L137.1227,130.4655 C136.0257,131.3855 135.5027,132.8215 135.7537,134.2325 C136.0047,135.6425 136.9917,136.8105 138.3387,137.2955 L179.4837,152.0865 C179.9247,152.2455 180.3817,152.3225 180.8367,152.3225 C181.7467,152.3225 182.6467,152.0115 183.3717,151.4165 C184.4607,150.5245 184.9997,149.1265 184.7937,147.7355 L178.2877,103.9215 C178.0757,102.4895 177.1047,101.2845 175.7507,100.7695 L175.7507,100.7695 Z" id="Fill-18" fill="#FFFFFF"></path>
                <g id="Group-22" transform="translate(12.000000, 227.685000)">
                    <mask id="mask-4" fill="white">
                        <use xlink:href="#path-3"></use>
                    </mask>
                    <g id="Clip-21"></g>
                    <path d="M9.2448,35.6294 L13.9378,9.5654 L45.7128,21.1614 L9.2448,35.6294 Z M58.3238,17.2474 L12.2148,0.4204 C11.1078,0.0174 9.8758,0.1214 8.8508,0.7094 C7.8278,1.2974 7.1158,2.3074 6.9068,3.4694 L0.0968,41.2914 C-0.1602,42.7204 0.3768,44.1764 1.5008,45.0964 C2.2268,45.6904 3.1248,46.0004 4.0338,46.0004 C4.5308,46.0004 5.0318,45.9074 5.5088,45.7184 L58.4278,24.7234 C59.9708,24.1114 60.9748,22.6094 60.9531544,20.9494 C60.9298,19.2904 59.8838,17.8174 58.3238,17.2474 L58.3238,17.2474 Z" id="Fill-20" fill="#FFFFFF" mask="url(#mask-4)"></path>
                </g>
            </g>
        </g>
    </g>
</svg>