<?xml version="1.0" encoding="UTF-8"?>
<svg width="449px" height="449px" viewBox="0 0 449 449" version="1.1" xmlns="http://www.w3.org/2000/svg" xmlns:xlink="http://www.w3.org/1999/xlink">
    <!-- Generator: Sketch 55.1 (78136) - https://sketchapp.com -->
    <title>Group 25</title>
    <desc>Created with Sketch.</desc>
    <g id="IDR" stroke="none" stroke-width="1" fill="none" fill-rule="evenodd">
        <g id="Group-25">
            <rect id="Rectangle" fill="#171717" transform="translate(224.500000, 224.500000) scale(-1, 1) translate(-224.500000, -224.500000) " x="0" y="0" width="449" height="449"></rect>
            <path d="M310.506073,88 L345,148 L276,148 L310.506073,88 Z M355.413553,154.803571 C356.195482,153.449107 356.195482,151.765179 355.413553,150.410714 L313.754764,77.1964286 C312.984865,75.8297619 311.553333,75 310.001504,75 C308.461704,75 307.018143,75.8297619 306.248243,77.1964286 L264.577425,150.410714 C263.807525,151.765179 263.807525,153.449107 264.577425,154.803571 C265.347324,156.158036 266.778857,157 268.330685,157 L351.672322,157 C353.212121,157 354.643653,156.158036 355.413553,154.803571 L355.413553,154.803571 Z" id="Fill-8" fill="#F9F9F9"></path>
            <path d="M103,149 L168,149 L168,84 L103,84 L103,149 Z M98.3928571,157 L171.607143,157 C172.766369,157 173.90119,156.53631 174.71875,155.71875 C175.53631,154.90119 176,153.766369 176,152.607143 L176,79.3928571 C176,78.2458333 175.53631,77.1110119 174.71875,76.2934524 C173.90119,75.4636905 172.766369,75 171.607143,75 L98.3928571,75 C97.233631,75 96.1110119,75.4636905 95.2934524,76.2934524 C94.4636905,77.1110119 94,78.2458333 94,79.3928571 L94,152.607143 C94,153.766369 94.4636905,154.90119 95.2934524,155.71875 C96.1110119,156.53631 97.233631,157 98.3928571,157 L98.3928571,157 Z" id="Fill-1" fill="#F9F9F9"></path>
            <path d="M140.5,247 L178,268.746966 L178,312.240898 L140.5,334 L103,312.240898 L103,268.746966 L140.5,247 Z M137.834728,342.416514 C139.169979,343.194495 140.830021,343.194495 142.165272,342.416514 L183.846757,318.104587 C185.182008,317.326606 186,315.880046 186,314.311927 L186,265.688073 C186,264.13211 185.182008,262.68555 183.846757,261.895413 L142.165272,237.583486 C140.830021,236.805505 139.169979,236.805505 137.834728,237.583486 L96.165272,261.895413 C94.8300209,262.68555 94,264.13211 94,265.688073 L94,314.311927 C94,315.880046 94.8300209,317.326606 96.165272,318.104587 L137.834728,342.416514 Z" id="Fill-7" fill="#F9F9F9"></path>
            <path d="M310.5,324 C292.551136,323.963068 278.036932,309.436553 278,291.5 C278.036932,273.538826 292.551136,259.036932 310.5,259 C328.448864,259.036932 342.963068,273.538826 343,291.5 C342.963068,309.436553 328.448864,323.963068 310.5,324 M310,250 C287.364583,250 269,268.352381 269,291 C269,313.647619 287.352381,332 310,332 C332.647619,332 351,313.647619 351,291 C351,268.352381 332.635417,250 310,250" id="Fill-5" fill="#F9F9F9"></path>
            <text id="Hexagon" font-family="IBMPlexSans, IBM Plex Sans" font-size="20" font-weight="normal" line-spacing="20" fill="#FFFFFF">
                <tspan x="101" y="375">Hexagon</tspan>
            </text>
            <text id="Circle" font-family="IBMPlexSans, IBM Plex Sans" font-size="20" font-weight="normal" line-spacing="20" fill="#FFFFFF">
                <tspan x="284" y="375">Circle</tspan>
            </text>
            <text id="Square" font-family="IBMPlexSans, IBM Plex Sans" font-size="20" font-weight="normal" line-spacing="20" fill="#FFFFFF">
                <tspan x="103" y="195">Square</tspan>
            </text>
            <text id="Triangle" font-family="IBMPlexSans, IBM Plex Sans" font-size="20" font-weight="normal" line-spacing="20" fill="#FFFFFF">
                <tspan x="274" y="195">Triangle</tspan>
            </text>
        </g>
    </g>
</svg>