<?xml version="1.0" encoding="UTF-8"?>
<svg width="928px" height="522px" viewBox="0 0 928 522" version="1.1" xmlns="http://www.w3.org/2000/svg" xmlns:xlink="http://www.w3.org/1999/xlink">
    <!-- Generator: Sketch 55.1 (78136) - https://sketchapp.com -->
    <title>Group 2</title>
    <desc>Created with Sketch.</desc>
    <defs>
        <polygon id="path-1" points="0 183 136.299778 183 136.299778 2.97375 0 2.97375"></polygon>
    </defs>
    <g id="IDR" stroke="none" stroke-width="1" fill="none" fill-rule="evenodd">
        <g id="IBM-Design-Language-—-Color-UI" transform="translate(-351.000000, -2211.000000)">
            <g id="Group-2" transform="translate(351.000000, 2211.000000)">
                <g id="Group-7">
                    <rect id="Rectangle" fill="#FFFFFF" x="0" y="0" width="447" height="447"></rect>
                    <g id="Group-3" transform="translate(56.000000, 80.632943)">
                        <path d="M271.625,1.37277541 L271.625,78.1453925 L334.792343,32.5680774 L271.625,1.37277541 Z" id="Path-4" stroke="#060606" stroke-width="1.25"></path>
                        <polygon id="Path-5" fill="#171717" points="246 192.367057 336 98.3539442 263.159467 87.3670569"></polygon>
                        <polygon id="Path-7" stroke="#020202" stroke-width="5" points="336 267.771776 306.723722 158.367057 292 280.367057"></polygon>
                        <path d="M1.7287304,136.079038 L97.7985966,161.404004 L67.1988863,102.20944 L1.7287304,136.079038 Z" id="Path-9" stroke="#060606" stroke-width="1.25"></path>
                        <polygon id="Path-10" fill="#171717" points="78 78.3670569 136 194.367057 136 78.3670569"></polygon>
                        <polygon id="Path-11" fill="#171717" points="220 92.3670569 202.371211 2.36705686 137 58.5869247"></polygon>
                        <path d="M123.625,204.056593 L123.625,271.541689 L187.495961,278.572714 L123.625,204.056593 Z" id="Path-12" stroke="#060606" stroke-width="1.25"></path>
                        <polygon id="Path-13" stroke="#020202" stroke-width="5" points="0 218.367057 58.0143326 279.367057 105 235.397697"></polygon>
                        <path d="M114.672658,166.411537 L177.908846,210.06417 L285.92908,184.565392 L114.672658,166.411537 Z" id="Path-15" stroke="#060606" stroke-width="1.25" transform="translate(200.970570, 188.133733) rotate(-107.000000) translate(-200.970570, -188.133733) "></path>
                        <polygon id="Path-17" stroke="#020202" stroke-width="5" transform="translate(41.197923, 44.974530) rotate(94.000000) translate(-41.197923, -44.974530) " points="1.64281432 10.2022779 80.7532666 79.7465138 1.64257867 79.7467819"></polygon>
                    </g>
                </g>
                <rect id="Rectangle" fill="#171717" x="0" y="0" width="928" height="522"></rect>
                <g id="Group-31" transform="translate(586.000000, 154.000000)" fill="#FFFFFF">
                    <polygon id="Fill-1" points="49.479798 107 69 104.488599 68.520202 101 49 103.511401"></polygon>
                    <g id="Group-30" transform="translate(0.000000, 3.000000)">
                        <path d="M14.568125,154.281394 C8.5473125,154.2712 3.6776875,149.398684 3.6675,143.374297 C3.6776875,137.34991 8.5473125,132.477394 14.568125,132.4672 C20.5889375,132.477394 25.4585625,137.34991 25.46875,143.374297 C25.4585625,149.398684 20.5889375,154.2712 14.568125,154.281394 M14.568125,128.797523 C6.52,128.797523 0,135.321394 0,143.374297 C0,151.422103 6.52,157.951071 14.568125,157.951071 C22.61625,157.951071 29.13625,151.422103 29.13625,143.374297 C29.13625,135.321394 22.61625,128.797523 14.568125,128.797523" id="Fill-2"></path>
                        <path d="M18.0598906,109.281465 L32.2816406,95.051271 L37.4925469,114.490368 L18.0598906,109.281465 Z M41.8578906,116.610626 L35.0067969,91.0299161 C34.8336094,90.3979161 34.3395156,89.903529 33.7078906,89.7353355 C33.0762656,89.5620452 32.3987969,89.745529 31.9403594,90.2093355 L13.2208281,108.934884 C12.7572969,109.39869 12.5790156,110.071465 12.7471094,110.708561 C12.9152031,111.340561 13.4092969,111.834948 14.0409219,112.003142 L39.6115469,118.858303 C40.2431719,119.026497 40.9206406,118.843013 41.3841719,118.384303 C41.8477031,117.920497 42.0259844,117.242626 41.8578906,116.610626 L41.8578906,116.610626 Z" id="Fill-4"></path>
                        <path d="M60.411875,83.6457097 C55.3435938,83.6355161 51.243125,79.5326129 51.2329375,74.4613226 C51.243125,69.3900323 55.3435938,65.287129 60.411875,65.2769355 C65.4801563,65.287129 69.580625,69.3900323 69.5908125,74.4613226 C69.580625,79.5326129 65.4801563,83.6355161 60.411875,83.6457097 M73.2532188,74.4613226 C73.2532188,67.3666129 67.5074688,61.6072581 60.411875,61.6072581 C53.3162813,61.6072581 47.5705313,67.3666129 47.5705313,74.4613226 C47.5705313,81.561129 53.3162813,87.3153871 60.411875,87.3153871 C67.5074688,87.3153871 73.2532188,81.561129 73.2532188,74.4613226" id="Fill-6"></path>
                        <path d="M67.3806344,153.609129 L44.0869156,140.153645 L57.5344156,116.846097 L80.8281344,130.301581 L67.3806344,153.609129 Z M57.7840094,112.753387 C57.3663219,112.508742 56.8569469,112.442484 56.3883219,112.569903 C55.9247906,112.692226 55.5172906,113.003129 55.2778844,113.421065 L39.9966344,139.909 C39.4872594,140.785645 39.7877906,141.906935 40.6639156,142.411516 L67.1361344,157.701839 C67.5538219,157.946484 68.0581031,158.012742 68.5267281,157.885323 C68.9902594,157.763 69.3977594,157.452097 69.6422594,157.034161 L84.9235094,130.551323 C85.1629156,130.12829 85.2291344,129.62371 85.1017906,129.154806 C84.9795406,128.691 84.6688219,128.283258 84.2511344,128.04371 L57.7840094,112.753387 Z" id="Fill-8"></path>
                        <path d="M31.5552719,73.9847742 L31.5552719,53.5976774 C31.5552719,53.1134839 31.3617094,52.6445806 31.0204281,52.3030968 C30.6791469,51.9565161 30.2054281,51.7628387 29.7215219,51.7628387 L9.34652188,51.7628387 L9.34652188,55.4325161 L25.2950531,55.4325161 L3.21364688,77.5270323 L5.80636563,80.1212903 L27.8877719,58.0267742 L27.8877719,73.9847742 L31.5552719,73.9847742 Z" id="Fill-10"></path>
                        <path d="M21.0224156,6.20379355 L29.6512281,22.6612774 L13.2086031,31.2952129 L4.57469688,14.837729 L21.0224156,6.20379355 Z M10.8145406,34.6234065 C11.2831656,35.5204387 12.3936031,35.8670194 13.2901031,35.3981161 L32.9825406,25.0567613 C33.4104156,24.8325032 33.7364156,24.4400516 33.8790406,23.9762452 C34.0216656,23.5124387 33.9758219,23.0027613 33.7516969,22.5746323 L23.4164781,2.8756 C22.9478531,1.97856774 21.8374156,1.6319871 20.9409156,2.10089032 L1.24847813,12.4422452 C0.351978125,12.9111484 0.010696875,14.0222452 0.479321875,14.9192774 L10.8145406,34.6234065 Z" id="Fill-12"></path>
                        <path d="M68.8333719,20.3340903 L66.2610281,49.1767355 L42.5852781,32.5255742 L68.8333719,20.3340903 Z M66.7500281,54.0033806 C67.2848719,54.3856387 67.9827156,54.4468 68.5735906,54.1715742 C69.1695594,53.8912516 69.5719656,53.3204129 69.6279969,52.6680258 L72.7657469,17.4951871 C72.8268719,16.8428 72.5314344,16.2057032 71.9965906,15.8336387 C71.4617469,15.4513806 70.7639031,15.3902194 70.1730281,15.6654452 L38.1639031,30.5327355 C37.5679344,30.8079613 37.1655281,31.3788 37.1044031,32.0311871 C37.0483719,32.688671 37.3438094,33.320671 37.8786531,33.6978323 L66.7500281,54.0033806 Z" id="Fill-14"></path>
                        <path d="M132.669266,148.358432 L146.891016,134.128239 L152.101922,153.567335 L132.669266,148.358432 Z M148.317266,128.812303 C147.685641,128.639013 147.008172,128.822497 146.549734,129.286303 L127.830203,148.011852 C127.366672,148.475658 127.188391,149.148432 127.356484,149.785529 C127.524578,150.417529 128.018672,150.911916 128.650297,151.08011 L154.220922,157.935271 C154.852547,158.108561 155.530016,157.925077 155.993547,157.461271 C156.457078,156.997465 156.635359,156.32469 156.467266,155.687594 L149.616172,130.106884 C149.442984,129.474884 148.948891,128.980497 148.317266,128.812303 L148.317266,128.812303 Z" id="Fill-16"></path>
                        <polygon id="Fill-18" points="112.781738 116.799716 128.562175 128.863781 130.793237 125.943329 115.007706 113.884361"></polygon>
                        <path d="M147.152325,74.7064774 L143.484825,74.7064774 L143.484825,105.9548 L132.207263,94.6705419 L129.614544,97.2648 L144.024763,111.678477 C144.366044,112.025058 144.834669,112.218735 145.318575,112.218735 C145.802481,112.218735 146.2762,112.019961 146.617481,111.678477 L161.022606,97.2648 L158.429887,94.6705419 L147.152325,105.9548 L147.152325,74.7064774 Z" id="Fill-20"></path>
                        <path d="M105.106475,89.0732645 L100.705475,112.365523 L82.7449125,96.9070065 L105.106475,89.0732645 Z M100.720756,117.222748 C101.219944,117.650877 101.9076,117.778297 102.523944,117.564232 C103.140288,117.345071 103.598725,116.815006 103.720975,116.172813 L109.303725,86.6319097 C109.420881,85.9897161 109.191663,85.3271355 108.697569,84.8990065 C108.198381,84.4708774 107.510725,84.3434581 106.894381,84.5575226 L78.537475,94.4911355 C77.9211313,94.7102968 77.4626938,95.2403613 77.3404438,95.8825548 C77.2181938,96.5298452 77.4525063,97.187329 77.9466,97.6154581 L100.720756,117.222748 Z" id="Fill-22"></path>
                        <path d="M131.888394,31.6152903 L145.335894,54.9177419 L122.047269,68.3732258 L108.599769,45.0707742 L131.888394,31.6152903 Z M119.790737,71.7982581 C120.295019,72.6749032 121.415644,72.9756129 122.291769,72.4710323 L148.758894,57.1807097 C149.176581,56.9360645 149.4873,56.5334194 149.60955,56.0645161 C149.736894,55.6007097 149.670675,55.0910323 149.431269,54.6730968 L134.150019,28.1902581 C133.640644,27.3136129 132.520019,27.0129032 131.643894,27.5225806 L105.176769,42.8129032 C104.300644,43.3174839 104.000113,44.4387742 104.509488,45.3154194 L119.790737,71.7982581 Z" id="Fill-24"></path>
                        <path d="M101.161875,154.281394 C95.1410625,154.2712 90.2714375,149.398684 90.26125,143.374297 C90.2714375,137.34991 95.1410625,132.477394 101.161875,132.4672 C107.182688,132.477394 112.052313,137.34991 112.0625,143.374297 C112.052313,149.398684 107.182688,154.2712 101.161875,154.281394 M101.161875,128.797523 C93.11375,128.797523 86.59375,135.321394 86.59375,143.374297 C86.59375,151.422103 93.11375,157.951071 101.161875,157.951071 C109.21,157.951071 115.73,151.422103 115.73,143.374297 C115.73,135.321394 109.21,128.797523 101.161875,128.797523" id="Fill-26"></path>
                        <polygon id="Fill-28" points="94.54815 79.8108968 82.8427125 46.6207032 79.3840562 47.8388323 91.0894938 81.0290258"></polygon>
                    </g>
                </g>
                <g id="Group-11" transform="translate(191.000000, 129.000000)">
                    <polygon id="Fill-1" fill="#FFFFFF" points="52 155.3 118 155.3 118 151.7 52 151.7"></polygon>
                    <g id="Group-10" transform="translate(0.000000, 2.000000)">
                        <path d="M29.3920815,74.7651583 L38.1144148,89.8982417 L20.6697481,89.8982417 L29.3920815,74.7651583 Z M30.9751926,70.1901583 C30.6504519,69.620825 30.041563,69.2751583 29.3920815,69.2751583 C28.7426,69.2751583 28.1337111,69.620825 27.8089704,70.1901583 L15.9254889,90.8132417 C15.6007481,91.382575 15.6007481,92.0739083 15.9254889,92.6432417 C16.2502296,93.2074917 16.8540444,93.5582417 17.5086,93.5582417 L41.275563,93.5582417 C41.9301185,93.5582417 42.5339333,93.2074917 42.8586741,92.6432417 C43.1834148,92.0739083 43.1834148,91.382575 42.8586741,90.8132417 L30.9751926,70.1901583 Z" id="Fill-2" fill="#FFFFFF"></path>
                        <mask id="mask-2" fill="white">
                            <use xlink:href="#path-1"></use>
                        </mask>
                        <g id="Clip-5"></g>
                        <path d="M19.3322222,161.517833 L39.4509259,161.517833 L39.4509259,141.362417 L19.3322222,141.362417 L19.3322222,161.517833 Z M41.2775926,137.7075 L17.5055556,137.7075 C17.0285926,137.7075 16.5567037,137.900667 16.2167407,138.24125 C15.8767778,138.581833 15.6788889,139.054583 15.6788889,139.5375 L15.6788889,163.347833 C15.6788889,163.83075 15.8767778,164.3035 16.2167407,164.644083 C16.5567037,164.984667 17.0285926,165.177833 17.5055556,165.177833 L41.2775926,165.177833 C41.7596296,165.177833 42.2264444,164.984667 42.5664074,164.644083 C42.9114444,164.3035 43.1042593,163.83075 43.1042593,163.347833 L43.1042593,139.5375 C43.1042593,139.054583 42.9114444,138.581833 42.5664074,138.24125 C42.2264444,137.900667 41.7596296,137.7075 41.2775926,137.7075 L41.2775926,137.7075 Z" id="Fill-4" fill="#FFFFFF" mask="url(#mask-2)"></path>
                        <polygon id="Fill-6" fill="#FFFFFF" mask="url(#mask-2)" points="52.3542963 118.258667 117.885963 118.258667 117.885963 114.598667 52.3542963 114.598667"></polygon>
                        <polygon id="Fill-7" fill="#FFFFFF" mask="url(#mask-2)" points="52.3542963 83.2446667 117.885963 83.2446667 117.885963 79.5846667 52.3542963 79.5846667"></polygon>
                        <path d="M29.3920815,126.506883 C23.8410444,126.496717 19.3454148,121.992883 19.3352667,116.431717 C19.3454148,110.865467 23.8359704,106.361633 29.3920815,106.351467 C34.9481926,106.361633 39.4387481,110.860383 39.4488963,116.431717 C39.4387481,121.992883 34.9481926,126.496717 29.3920815,126.506883 M29.3920815,102.691467 C21.821563,102.691467 15.6819333,108.837217 15.6819333,116.431717 C15.6819333,124.01605 21.8164889,130.166883 29.3920815,130.166883 C36.9676741,130.166883 43.1022296,124.01605 43.1022296,116.431717 C43.1022296,108.8423 36.9676741,102.691467 29.3920815,102.691467" id="Fill-8" fill="#FFFFFF" mask="url(#mask-2)"></path>
                        <path d="M3.65231852,179.341017 L3.65231852,6.63476667 L95.7619852,6.63476667 L95.7619852,41.7606 C95.7619852,42.2384333 95.9548,42.7111833 96.294763,43.0517667 C96.6347259,43.39235 97.1066148,43.5855167 97.5886519,43.5855167 L132.64543,43.5855167 L132.64543,179.341017 L3.65231852,179.341017 Z M99.4153185,9.22218333 L130.062726,39.9306 L99.4153185,39.9306 L99.4153185,9.22218333 Z M135.765985,40.46435 L98.8774667,3.5136 C98.5375037,3.16793333 98.0656148,2.97476667 97.5886519,2.97476667 L1.82565185,2.97476667 C1.34361481,2.97476667 0.8768,3.16793333 0.536837037,3.5136 C0.1918,3.85418333 -0.00101481481,4.32185 -0.00101481481,4.80476667 L-0.00101481481,181.171017 C-0.00101481481,181.653933 0.1918,182.1216 0.536837037,182.462183 C0.8768,182.80785 1.34361481,183.001017 1.82565185,183.001017 L134.472096,183.001017 C134.954133,183.001017 135.426022,182.80785 135.765985,182.462183 C136.105948,182.1216 136.298763,181.653933 136.298763,181.171017 L136.298763,41.7606 C136.298763,41.2776833 136.105948,40.8049333 135.765985,40.46435 L135.765985,40.46435 Z" id="Fill-9" fill="#FFFFFF" mask="url(#mask-2)"></path>
                    </g>
                </g>
                <path d="M88.5,90 L430,431.5" id="Line-2" stroke="#FB4B53" stroke-width="3" stroke-linecap="square"></path>
                <path d="M88.5,90 L430,431.5" id="Line-2" stroke="#FB4B53" stroke-width="3" stroke-linecap="square" transform="translate(259.000000, 261.000000) rotate(-270.000000) translate(-259.000000, -261.000000) "></path>
                <text id="Rules" font-family="IBMPlexSans, IBM Plex Sans" font-size="28" font-weight="normal" line-spacing="24" fill="#FFFFFF">
                    <tspan x="224" y="394">Rules</tspan>
                </text>
                <text id="Examples" font-family="IBMPlexSans, IBM Plex Sans" font-size="28" font-weight="normal" line-spacing="24" fill="#FFFFFF">
                    <tspan x="606" y="394">Examples</tspan>
                </text>
            </g>
        </g>
    </g>
</svg>