<svg width="928" height="522" xmlns="http://www.w3.org/2000/svg" xmlns:xlink="http://www.w3.org/1999/xlink"><defs><path id="a" d="M0 183h136.3V3H0z"/></defs><g fill="none" fill-rule="evenodd"><path fill="#171717" d="M0 0h928v522H0z"/><g fill="#FFF"><path d="M635.5 261l19.5-2.5-.5-3.5-19.5 2.5zM600.6 311.3a11 11 0 1 1 0-21.9 11 11 0 0 1 0 21.9m0-25.5a14.6 14.6 0 1 0 0 29.1 14.6 14.6 0 0 0 0-29.1M604 266.3l14.3-14.2 5.2 19.4-19.4-5.2zm23.9 7.3L621 248a1.8 1.8 0 0 0-3-.8L599.1 266a1.8 1.8 0 0 0 .8 3.1l25.6 6.9c.6.1 1.3 0 1.8-.5.4-.5.6-1.2.5-1.8zM646.4 240.6a9.2 9.2 0 1 1 0-18.3 9.2 9.2 0 0 1 0 18.3m12.9-9.1a12.8 12.8 0 1 0-25.7 0 12.8 12.8 0 0 0 25.7 0M653.4 310.6L630 297.2l13.4-23.4 23.3 13.5-13.4 23.3zm-9.6-40.8a1.8 1.8 0 0 0-2.5.6L626 297c-.5.9-.2 2 .7 2.5l26.4 15.3c.5.2 1 .3 1.4.2.5-.1.9-.4 1.1-.9l15.3-26.4a1.9 1.9 0 0 0-.6-2.6l-26.5-15.2zM617.6 231v-20.4a1.8 1.8 0 0 0-1.9-1.8h-20.4v3.6h16l-22 22.1 2.5 2.6 22-22V231h3.8zM607 163.2l8.7 16.5-16.5 8.6-8.6-16.5 16.4-8.6zm-10.2 28.4c.5 1 1.6 1.3 2.5.8l19.7-10.3a1.8 1.8 0 0 0 .8-2.5l-10.4-19.7a1.8 1.8 0 0 0-2.5-.8l-19.7 10.3c-.8.5-1.2 1.6-.7 2.5l10.3 19.7zM654.8 177.3l-2.5 28.9-23.7-16.7 26.2-12.2zm-2 33.7c.5.4 1.2.4 1.8.2.6-.3 1-.9 1-1.5l3.2-35.2c0-.7-.3-1.3-.8-1.7-.5-.3-1.2-.4-1.8-.1l-32 14.8a1.8 1.8 0 0 0-.3 3.2l28.9 20.3zM718.7 305.4l14.2-14.3 5.2 19.5-19.4-5.2zm15.6-19.6c-.6-.2-1.3 0-1.8.5L713.8 305a1.8 1.8 0 0 0 .9 3l25.5 7a1.8 1.8 0 0 0 2.3-2.3l-6.9-25.6c-.2-.6-.7-1.1-1.3-1.3zM698.8 273.8l15.8 12 2.2-2.9-15.8-12zM733.2 231.7h-3.7V263l-11.3-11.3-2.6 2.6 14.4 14.4a1.8 1.8 0 0 0 2.6 0l14.4-14.4-2.6-2.6-11.2 11.3v-31.3zM691.1 246l-4.4 23.4-18-15.5 22.4-7.8zm-4.4 28.2a1.8 1.8 0 0 0 3-1l5.6-29.6c.1-.6-.1-1.3-.6-1.7-.5-.4-1.2-.6-1.8-.3l-28.4 9.9c-.6.2-1 .7-1.2 1.4 0 .6.2 1.3.6 1.7l22.8 19.6zM717.9 188.6l13.4 23.3-23.3 13.5-13.4-23.3 23.3-13.5zm-12.1 40.2c.5.9 1.6 1.2 2.5.7l26.5-15.3a1.8 1.8 0 0 0 .6-2.5l-15.2-26.5a1.8 1.8 0 0 0-2.6-.7l-26.4 15.3c-.9.5-1.2 1.6-.7 2.5l15.3 26.5zM687.2 311.3a11 11 0 1 1 0-21.9 11 11 0 0 1 0 21.9m0-25.5a14.6 14.6 0 1 0 0 29.1 14.6 14.6 0 0 0 0-29.1M680.5 236.8l-11.7-33.2-3.4 1.2L677 238z"/></g><path fill="#FFF" d="M243 284.3h66v-3.6h-66z"/><g transform="translate(191 131)"><path d="M29.4 74.8L38 89.9H20.7l8.7-15.1zm1.6-4.6a1.8 1.8 0 0 0-3.2 0L16 90.8c-.3.6-.3 1.3 0 1.8.4.6 1 1 1.6 1h23.8a1.8 1.8 0 0 0 1.6-2.8l-12-20.6z" fill="#FFF"/><mask id="b" fill="#fff"><use xlink:href="#a"/></mask><path d="M19.3 161.5h20.2v-20.1H19.3v20.1zm22-23.8H17.5a1.8 1.8 0 0 0-1.8 1.8v23.8c0 .5.2 1 .5 1.3.4.4.8.6 1.3.6h23.8a1.8 1.8 0 0 0 1.8-1.9v-23.8a1.8 1.8 0 0 0-1.8-1.8zM52.4 118.3h65.5v-3.7H52.4zM52.4 83.2h65.5v-3.6H52.4zM29.4 126.5a10 10 0 0 1 0-20.1 10 10 0 0 1 0 20.1m0-23.8a13.7 13.7 0 1 0 0 27.4 13.7 13.7 0 0 0 0-27.4" fill="#FFF" mask="url(#b)"/><path d="M3.7 179.3V6.6h92v35.2c0 .4.3 1 .6 1.3.3.3.8.5 1.3.5h35v135.7H3.6zm95.7-170l30.7 30.6H99.4V9.2zm36.4 31.2l-37-37c-.3-.3-.7-.5-1.2-.5H1.8c-.5 0-1 .2-1.3.5-.3.4-.5.8-.5 1.3v176.4c0 .5.2 1 .5 1.3.4.3.8.5 1.3.5h132.7a1.8 1.8 0 0 0 1.8-1.8V41.8c0-.5-.2-1-.5-1.3z" fill="#FFF" mask="url(#b)"/></g><path d="M88.5 90L430 431.5M430 90.5L88.5 432" stroke="#FB4B53" stroke-width="3" stroke-linecap="square"/><text font-family="IBMPlexSans, IBM Plex Sans" font-size="28" fill="#FFF"><tspan x="224" y="394">Rules</tspan></text><text font-family="IBMPlexSans, IBM Plex Sans" font-size="28" fill="#FFF"><tspan x="606" y="394">Examples</tspan></text></g></svg>