<?xml version="1.0" encoding="UTF-8"?>
<svg width="318px" height="318px" viewBox="0 0 318 318" version="1.1" xmlns="http://www.w3.org/2000/svg" xmlns:xlink="http://www.w3.org/1999/xlink">
    <!-- Generator: Sketch 55.1 (78136) - https://sketchapp.com -->
    <title>Group 16</title>
    <desc>Created with Sketch.</desc>
    <g id="IDR" stroke="none" stroke-width="1" fill="none" fill-rule="evenodd">
        <g id="Home_Desktop-Dark-Copy-17" transform="translate(-340.000000, -1392.000000)">
            <g id="Group-16" transform="translate(340.000000, 1392.000000)">
                <rect id="Rectangle-6" fill="#282828" x="0" y="0" width="318" height="318"></rect>
                <g id="Group-31" transform="translate(90.000000, 92.000000)" fill="#FFFFFF">
                    <polygon id="Fill-1" points="42.4078283 88 59 85.9071661 58.5921717 83 42 85.0928339"></polygon>
                    <g id="Group-30">
                        <path d="M12.423125,130.82271 C7.2888125,130.814 3.1361875,126.650774 3.1275,121.503355 C3.1361875,116.355935 7.2888125,112.19271 12.423125,112.184 C17.5574375,112.19271 21.7100625,116.355935 21.71875,121.503355 C21.7100625,126.650774 17.5574375,130.814 12.423125,130.82271 M12.423125,109.048516 C5.56,109.048516 0,114.62271 0,121.503355 C0,128.379645 5.56,133.958194 12.423125,133.958194 C19.28625,133.958194 24.84625,128.379645 24.84625,121.503355 C24.84625,114.62271 19.28625,109.048516 12.423125,109.048516" id="Fill-2"></path>
                        <path d="M15.4007656,92.3734032 L27.5285156,80.2146935 L31.9721719,96.8240484 L15.4007656,92.3734032 Z M35.6947656,98.6356613 L29.8524219,76.7787258 C29.7047344,76.2387258 29.2833906,75.8163065 28.7447656,75.6725968 C28.2061406,75.5245323 27.6284219,75.6813065 27.2374844,76.0775968 L11.2742031,92.0772742 C10.8789219,92.4735645 10.7268906,93.0484032 10.8702344,93.5927581 C11.0135781,94.1327581 11.4349219,94.5551774 11.9735469,94.6988871 L33.7791719,100.556145 C34.3177969,100.699855 34.8955156,100.543081 35.2907969,100.151145 C35.6860781,99.7548548 35.8381094,99.1756613 35.6947656,98.6356613 L35.6947656,98.6356613 Z" id="Fill-4"></path>
                        <path d="M51.516875,70.4694355 C47.1948438,70.4607258 43.698125,66.9550806 43.6894375,62.6220161 C43.698125,58.2889516 47.1948438,54.7833065 51.516875,54.7745968 C55.8389063,54.7833065 59.335625,58.2889516 59.3443125,62.6220161 C59.335625,66.9550806 55.8389063,70.4607258 51.516875,70.4694355 M62.4674688,62.6220161 C62.4674688,56.5600806 57.5677188,51.6391129 51.516875,51.6391129 C45.4660313,51.6391129 40.5662813,56.5600806 40.5662813,62.6220161 C40.5662813,68.6883065 45.4660313,73.6049194 51.516875,73.6049194 C57.5677188,73.6049194 62.4674688,68.6883065 62.4674688,62.6220161" id="Fill-6"></path>
                        <path d="M57.4595594,130.248306 L37.5955906,118.751532 L49.0630906,98.8368548 L68.9270594,110.333629 L57.4595594,130.248306 Z M49.2759344,95.3399194 C48.9197469,95.1308871 48.4853719,95.0742742 48.0857469,95.1831452 C47.6904656,95.2876613 47.3429656,95.5533065 47.1388094,95.9104032 L34.1075594,118.5425 C33.6731844,119.291532 33.9294656,120.249597 34.6765906,120.680726 L57.2510594,133.745242 C57.6072469,133.954274 58.0372781,134.010887 58.4369031,133.902016 C58.8321844,133.7975 59.1796844,133.531855 59.3881844,133.174758 L72.4194344,110.547016 C72.6235906,110.185565 72.6800594,109.754435 72.5714656,109.35379 C72.4672156,108.9575 72.2022469,108.609113 71.8460594,108.404435 L49.2759344,95.3399194 Z" id="Fill-8"></path>
                        <path d="M26.9090969,62.2148387 L26.9090969,44.7954839 C26.9090969,44.3817742 26.7440344,43.981129 26.4530031,43.6893548 C26.1619719,43.3932258 25.7580031,43.2277419 25.3453469,43.2277419 L7.97034687,43.2277419 L7.97034687,46.3632258 L21.5706281,46.3632258 L2.74047187,65.2414516 L4.95144062,67.4580645 L23.7815969,48.5798387 L23.7815969,62.2148387 L26.9090969,62.2148387 Z" id="Fill-10"></path>
                        <path d="M17.9270906,4.30070968 L25.2854031,18.3624839 L11.2637781,25.7395806 L3.90112188,11.6778065 L17.9270906,4.30070968 Z M9.22221563,28.5832903 C9.62184063,29.3497419 10.5687781,29.645871 11.3332781,29.2452258 L28.1262156,20.4092581 C28.4910906,20.2176452 28.7690906,19.8823226 28.8907156,19.4860323 C29.0123406,19.0897419 28.9732469,18.6542581 28.7821219,18.2884516 L19.9686531,1.457 C19.5690281,0.690548387 18.6220906,0.394419355 17.8575906,0.795064516 L1.06465313,9.63103226 C0.300153125,10.0316774 0.009121875,10.9810323 0.408746875,11.7474839 L9.22221563,28.5832903 Z" id="Fill-12"></path>
                        <path d="M58.6983969,16.3740645 L56.5048031,41.0180968 L36.3150531,26.7908387 L58.6983969,16.3740645 Z M56.9218031,45.142129 C57.3778969,45.4687419 57.9729906,45.521 58.4768656,45.2858387 C58.9850844,45.0463226 59.3282406,44.5585806 59.3760219,44.0011613 L62.0517719,13.9484194 C62.1038969,13.391 61.8519594,12.8466452 61.3958656,12.5287419 C60.9397719,12.202129 60.3446781,12.149871 59.8408031,12.3850323 L32.5446781,25.0880968 C32.0364594,25.3232581 31.6933031,25.811 31.6411781,26.3684194 C31.5933969,26.9301935 31.8453344,27.4701935 32.3014281,27.7924516 L56.9218031,45.142129 Z" id="Fill-14"></path>
                        <path d="M113.135141,125.761952 L125.262891,113.603242 L129.706547,130.212597 L113.135141,125.761952 Z M126.479141,109.061145 C125.940516,108.913081 125.362797,109.069855 124.971859,109.466145 L109.008578,125.465823 C108.613297,125.862113 108.461266,126.436952 108.604609,126.981306 C108.747953,127.521306 109.169297,127.943726 109.707922,128.087435 L131.513547,133.944694 C132.052172,134.092758 132.629891,133.935984 133.025172,133.539694 C133.420453,133.143403 133.572484,132.568565 133.429141,132.02421 L127.586797,110.167274 C127.439109,109.627274 127.017766,109.204855 126.479141,109.061145 L126.479141,109.061145 Z" id="Fill-16"></path>
                        <polygon id="Fill-18" points="96.1758375 98.7972258 109.632775 109.105129 111.535337 106.609806 98.0740562 96.3062581"></polygon>
                        <path d="M125.485725,62.8314839 L122.358225,62.8314839 L122.358225,89.531 L112.741162,79.8893871 L110.530194,82.106 L122.818662,94.4214839 C123.109694,94.7176129 123.509319,94.8830968 123.921975,94.8830968 C124.334631,94.8830968 124.7386,94.7132581 125.029631,94.4214839 L137.313756,82.106 L135.102787,79.8893871 L125.485725,89.531 L125.485725,62.8314839 Z" id="Fill-20"></path>
                        <path d="M89.630675,75.1069032 L85.877675,95.0085161 L70.5616125,81.8002903 L89.630675,75.1069032 Z M85.8907062,99.1586774 C86.3163937,99.5244839 86.9028,99.6333548 87.4283937,99.4504516 C87.9539875,99.2631935 88.344925,98.8102903 88.449175,98.2615806 L93.209925,73.0209355 C93.3098312,72.4722258 93.1143625,71.9060968 92.6930187,71.5402903 C92.2673312,71.1744839 91.680925,71.0656129 91.1553312,71.2485161 L66.973675,79.7360968 C66.4480812,79.9233548 66.0571437,80.3762581 65.9528937,80.9249677 C65.8486437,81.4780323 66.0484562,82.0398065 66.4698,82.4056129 L85.8907062,99.1586774 Z" id="Fill-22"></path>
                        <path d="M112.469244,26.0130645 L123.936744,45.9233871 L104.077119,57.4201613 L92.6096188,37.5098387 L112.469244,26.0130645 Z M102.152838,60.3466129 C102.582869,61.0956452 103.538494,61.3525806 104.285619,60.9214516 L126.855744,47.8569355 C127.211931,47.6479032 127.4769,47.303871 127.58115,46.9032258 C127.689744,46.5069355 127.633275,46.0714516 127.429119,45.7143548 L114.397869,23.0866129 C113.963494,22.3375806 113.007869,22.0806452 112.260744,22.516129 L89.6906188,35.5806452 C88.9434938,36.0117742 88.6872125,36.9698387 89.1215875,37.718871 L102.152838,60.3466129 Z" id="Fill-24"></path>
                        <path d="M86.266875,130.82271 C81.1325625,130.814 76.9799375,126.650774 76.97125,121.503355 C76.9799375,116.355935 81.1325625,112.19271 86.266875,112.184 C91.4011875,112.19271 95.5538125,116.355935 95.5625,121.503355 C95.5538125,126.650774 91.4011875,130.814 86.266875,130.82271 M86.266875,109.048516 C79.40375,109.048516 73.84375,114.62271 73.84375,121.503355 C73.84375,128.379645 79.40375,133.958194 86.266875,133.958194 C93.13,133.958194 98.69,128.379645 98.69,121.503355 C98.69,114.62271 93.13,109.048516 86.266875,109.048516" id="Fill-26"></path>
                        <polygon id="Fill-28" points="80.62695 67.1928548 70.6450125 38.8341452 67.6956063 39.8749516 77.6775438 68.2336613"></polygon>
                    </g>
                </g>
            </g>
        </g>
    </g>
</svg>