<?xml version="1.0" encoding="UTF-8"?>
<svg width="320px" height="1244px" viewBox="0 0 320 1244" version="1.1" xmlns="http://www.w3.org/2000/svg" xmlns:xlink="http://www.w3.org/1999/xlink">
    <!-- Generator: Sketch 55.1 (78136) - https://sketchapp.com -->
    <title>Group 2</title>
    <desc>Created with Sketch.</desc>
    <defs>
        <linearGradient x1="100%" y1="0%" x2="0%" y2="100%" id="linearGradient-1">
            <stop stop-color="#A66EFA" offset="0%"></stop>
            <stop stop-color="#FA75A6" offset="100%"></stop>
        </linearGradient>
        <polygon id="path-2" points="9 3.1875 8.295 3.9365625 12.085 7.96875 1.5 7.96875 1.5 9.03125 12.085 9.03125 8.295 13.0634375 9 13.8125 14 8.5"></polygon>
        <polygon id="path-4" points="9 3.1875 8.295 3.9365625 12.085 7.96875 1.5 7.96875 1.5 9.03125 12.085 9.03125 8.295 13.0634375 9 13.8125 14 8.5"></polygon>
        <polygon id="path-6" points="9 3.1875 8.295 3.9365625 12.085 7.96875 1.5 7.96875 1.5 9.03125 12.085 9.03125 8.295 13.0634375 9 13.8125 14 8.5"></polygon>
        <polygon id="path-8" points="9 3.1875 8.295 3.9365625 12.085 7.96875 1.5 7.96875 1.5 9.03125 12.085 9.03125 8.295 13.0634375 9 13.8125 14 8.5"></polygon>
    </defs>
    <g id="IDR" stroke="none" stroke-width="1" fill="none" fill-rule="evenodd">
        <g id="Group-2">
            <rect id="Rectangle" fill="#020202" x="0" y="0" width="320" height="1244"></rect>
            <polygon id="Polygon" fill="#FFFFFF" points="81 88 145.08588 125 145.08588 199 81 236 16.9141201 199 16.9141201 125"></polygon>
            <polygon id="Polygon" fill="url(#linearGradient-1)" points="81 384 129.083261 403.916739 149 452 129.083261 500.083261 81 520 32.9167389 500.083261 13 452 32.9167389 403.916739"></polygon>
            <rect id="Rectangle" fill="#A66EFA" x="17" y="666" width="128" height="129"></rect>
            <rect id="Rectangle" fill="#A66EFA" x="17" y="858" width="128" height="129"></rect>
            <rect id="Rectangle" fill="#A66EFA" x="17" y="1050" width="128" height="129"></rect>
            <text id="Data-and-Policy" font-family="IBMPlexSans-SemiBold, IBM Plex Sans" font-size="16" font-weight="500" line-spacing="24" fill="#020202">
                <tspan x="47.22" y="444">Data and</tspan>
                <tspan x="58.172" y="468">Policy</tspan>
            </text>
            <text id="Understanding" font-family="IBMPlexSans-SemiBold, IBM Plex Sans" font-size="16" font-weight="500" line-spacing="24" fill="#020202">
                <tspan x="25.7" y="731">Understanding</tspan>
            </text>
            <text id="Reasoning" font-family="IBMPlexSans-SemiBold, IBM Plex Sans" font-size="16" font-weight="500" line-spacing="24" fill="#020202">
                <tspan x="42.9" y="924">Reasoning</tspan>
            </text>
            <text id="Knowledge" font-family="IBMPlexSans-SemiBold, IBM Plex Sans" font-size="16" font-weight="500" line-spacing="24" fill="#020202">
                <tspan x="40.076" y="1116">Knowledge</tspan>
            </text>
            <text id="Intent" font-family="IBMPlexSans-SemiBold, IBM Plex Sans" font-size="16" font-weight="500" line-spacing="24" fill="#020202">
                <tspan x="57.292" y="163">Intent</tspan>
            </text>
            <text id="The-user-and-busines" font-family="IBMPlexSans, IBM Plex Sans" font-size="14" font-weight="normal" line-spacing="20" fill="#F3F3F3">
                <tspan x="177" y="102">The user and </tspan>
                <tspan x="177" y="122">business intents </tspan>
                <tspan x="177" y="142">for this effort</tspan>
            </text>
            <text id="What-you-have-What-y" font-family="IBMPlexSans, IBM Plex Sans" font-size="14" font-weight="normal" line-spacing="20" fill="#F3F3F3">
                <tspan x="192" y="398">What you have</tspan>
                <tspan x="192" y="418">What you want/</tspan>
                <tspan x="192" y="438">need</tspan>
                <tspan x="192" y="458">What you need </tspan>
                <tspan x="192" y="478">but is unavailable</tspan>
            </text>
            <text id="—-—-—" font-family="IBMPlexSans, IBM Plex Sans" font-size="14" font-weight="normal" line-spacing="20" fill="#F3F3F3">
                <tspan x="178" y="398">—</tspan>
                <tspan x="178" y="418">—</tspan>
                <tspan x="178" y="438"></tspan>
                <tspan x="178" y="458">—</tspan>
            </text>
            <text id="Placing-structured-a" font-family="IBMPlexSans, IBM Plex Sans" font-size="14" font-weight="normal" line-spacing="20" fill="#F3F3F3">
                <tspan x="178" y="680">Placing structured </tspan>
                <tspan x="178" y="700">and unstructured </tspan>
                <tspan x="178" y="720">data in context of </tspan>
                <tspan x="178" y="740">your domain.</tspan>
            </text>
            <text id="The-system’s-applica" font-family="IBMPlexSans, IBM Plex Sans" font-size="14" font-weight="normal" line-spacing="20" fill="#F3F3F3">
                <tspan x="178" y="872">The system’s </tspan>
                <tspan x="178" y="892">application of logic </tspan>
                <tspan x="178" y="912">to decide on the </tspan>
                <tspan x="178" y="932">best course(s) of </tspan>
                <tspan x="178" y="952">action.</tspan>
            </text>
            <text id="This-is-what-the-sys" font-family="IBMPlexSans, IBM Plex Sans" font-size="14" font-weight="normal" line-spacing="20" fill="#F3F3F3">
                <tspan x="178" y="1064">This is what the </tspan>
                <tspan x="178" y="1084">system knows. </tspan>
                <tspan x="178" y="1104">This is all past </tspan>
                <tspan x="178" y="1124">data, insights, and </tspan>
                <tspan x="178" y="1144">learned attributes </tspan>
            </text>
            <text id="Business" font-family="IBMPlexSans, IBM Plex Sans" font-size="16" font-weight="normal" line-spacing="24" fill="#F3F3F3">
                <tspan x="17" y="46">Business</tspan>
            </text>
            <text id="World" font-family="IBMPlexSans, IBM Plex Sans" font-size="16" font-weight="normal" line-spacing="24" fill="#F3F3F3">
                <tspan x="17" y="340">World</tspan>
            </text>
            <text id="Machine" font-family="IBMPlexSans, IBM Plex Sans" font-size="16" font-weight="normal" line-spacing="24" fill="#F3F3F3">
                <tspan x="17" y="623">Machine</tspan>
            </text>
            <g id="icon/navigation/arrow/right/20" transform="translate(81.000000, 270.500000) rotate(-270.000000) translate(-81.000000, -270.500000) translate(73.000000, 262.000000)">
                <mask id="mask-3" fill="white">
                    <use xlink:href="#path-2"></use>
                </mask>
                <use id="icon-color" fill="#F3F3F3" fill-rule="evenodd" xlink:href="#path-2"></use>
            </g>
            <g id="icon/navigation/arrow/right/20" transform="translate(81.000000, 552.500000) rotate(-270.000000) translate(-81.000000, -552.500000) translate(73.000000, 544.000000)">
                <mask id="mask-5" fill="white">
                    <use xlink:href="#path-4"></use>
                </mask>
                <use id="icon-color" fill="#F3F3F3" fill-rule="evenodd" xlink:href="#path-4"></use>
            </g>
            <g id="icon/navigation/arrow/right/20" transform="translate(81.000000, 827.500000) rotate(-270.000000) translate(-81.000000, -827.500000) translate(73.000000, 819.000000)">
                <mask id="mask-7" fill="white">
                    <use xlink:href="#path-6"></use>
                </mask>
                <use id="icon-color" fill="#F3F3F3" fill-rule="evenodd" xlink:href="#path-6"></use>
            </g>
            <path d="M17.4548387,63.5 L305,63.5" id="Line-6" stroke="#F3F3F3" stroke-linecap="square"></path>
            <path d="M17.4552716,359.5 L305,359.5" id="Line-6" stroke="#F3F3F3" stroke-linecap="square"></path>
            <path d="M17.4542587,642.5 L305,642.5" id="Line-6" stroke="#F3F3F3" stroke-linecap="square"></path>
            <path d="" id="Path-20" stroke="#979797"></path>
            <g id="icon/navigation/arrow/right/20" transform="translate(81.000000, 1019.500000) rotate(-270.000000) translate(-81.000000, -1019.500000) translate(73.000000, 1011.000000)">
                <mask id="mask-9" fill="white">
                    <use xlink:href="#path-8"></use>
                </mask>
                <use id="icon-color" fill="#F3F3F3" fill-rule="evenodd" xlink:href="#path-8"></use>
            </g>
        </g>
    </g>
</svg>