<?xml version="1.0" encoding="UTF-8"?>
<svg width="928px" height="522px" viewBox="0 0 928 522" version="1.1" xmlns="http://www.w3.org/2000/svg" xmlns:xlink="http://www.w3.org/1999/xlink">
    <!-- Generator: Sketch 55.1 (78136) - https://sketchapp.com -->
    <title>Group 4</title>
    <desc>Created with Sketch.</desc>
    <defs>
        <polygon id="path-1" points="18 6 16.59 7.41 24.17 15 3 15 3 17 24.17 17 16.59 24.59 18 26 28 16"></polygon>
    </defs>
    <g id="IDR" stroke="none" stroke-width="1" fill="none" fill-rule="evenodd">
        <g id="IBM-Design-Language-—-Color-UI" transform="translate(-351.000000, -1417.000000)">
            <g id="Group-4" transform="translate(351.000000, 1417.000000)">
                <rect id="Rectangle" fill="#171717" x="0" y="0" width="928" height="522"></rect>
                <g id="Group-2" transform="translate(177.000000, 135.000000)" fill="#FFFFFF">
                    <g id="Group-31">
                        <g id="Group-30">
                            <path d="M25.568125,164.281394 C19.5473125,164.2712 14.6776875,159.398684 14.6675,153.374297 C14.6776875,147.34991 19.5473125,142.477394 25.568125,142.4672 C31.5889375,142.477394 36.4585625,147.34991 36.46875,153.374297 C36.4585625,159.398684 31.5889375,164.2712 25.568125,164.281394 M25.568125,138.797523 C17.52,138.797523 11,145.321394 11,153.374297 C11,161.422103 17.52,167.951071 25.568125,167.951071 C33.61625,167.951071 40.13625,161.422103 40.13625,153.374297 C40.13625,145.321394 33.61625,138.797523 25.568125,138.797523" id="Fill-2"></path>
                            <path d="M40.568125,127.483871 C34.5473125,127.473677 29.6776875,122.601161 29.6675,116.576774 C29.6776875,110.552387 34.5473125,105.679871 40.568125,105.669677 C46.5889375,105.679871 51.4585625,110.552387 51.46875,116.576774 C51.4585625,122.601161 46.5889375,127.473677 40.568125,127.483871 M40.568125,102 C32.52,102 26,108.523871 26,116.576774 C26,124.624581 32.52,131.153548 40.568125,131.153548 C48.61625,131.153548 55.13625,124.624581 55.13625,116.576774 C55.13625,108.523871 48.61625,102 40.568125,102" id="Fill-2"></path>
                            <path d="M96.0536459,73.6103964 L110.275396,59.3802028 L115.486302,78.8192996 L96.0536459,73.6103964 Z M119.851646,80.9395577 L113.000552,55.358848 C112.827365,54.726848 112.333271,54.2324609 111.701646,54.0642674 C111.070021,53.890977 110.392552,54.0744609 109.934115,54.5382674 L91.2145834,73.2638157 C90.7510522,73.7276222 90.5727709,74.4003964 90.7408647,75.0374932 C90.9089584,75.6694932 91.4030522,76.1638803 92.0346772,76.3320738 L117.605302,83.1872351 C118.236927,83.3554287 118.914396,83.1719448 119.377927,82.7132351 C119.841458,82.2494287 120.01974,81.5715577 119.851646,80.9395577 L119.851646,80.9395577 Z" id="Fill-4" transform="translate(105.296255, 68.624327) rotate(-14.000000) translate(-105.296255, -68.624327) "></path>
                            <path d="M71.411875,93.6457097 C66.3435937,93.6355161 62.243125,89.5326129 62.2329375,84.4613226 C62.243125,79.3900323 66.3435937,75.287129 71.411875,75.2769355 C76.4801562,75.287129 80.580625,79.3900323 80.5908125,84.4613226 C80.580625,89.5326129 76.4801562,93.6355161 71.411875,93.6457097 M84.2532187,84.4613226 C84.2532187,77.3666129 78.5074687,71.6072581 71.411875,71.6072581 C64.3162812,71.6072581 58.5705312,77.3666129 58.5705312,84.4613226 C58.5705312,91.561129 64.3162812,97.3153871 71.411875,97.3153871 C78.5074687,97.3153871 84.2532187,91.561129 84.2532187,84.4613226" id="Fill-6"></path>
                            <path d="M139.841344,124.038452 C134.773063,124.028258 130.672594,119.925355 130.662406,114.854065 C130.672594,109.782774 134.773063,105.679871 139.841344,105.669677 C144.909625,105.679871 149.010094,109.782774 149.020281,114.854065 C149.010094,119.925355 144.909625,124.028258 139.841344,124.038452 M152.682688,114.854065 C152.682688,107.759355 146.936938,102 139.841344,102 C132.74575,102 127,107.759355 127,114.854065 C127,121.953871 132.74575,127.708129 139.841344,127.708129 C146.936938,127.708129 152.682688,121.953871 152.682688,114.854065" id="Fill-6"></path>
                            <path d="M113.841344,34.0384516 C108.773063,34.0282581 104.672594,29.9253548 104.662406,24.8540645 C104.672594,19.7827742 108.773063,15.679871 113.841344,15.6696774 C118.909625,15.679871 123.010094,19.7827742 123.020281,24.8540645 C123.010094,29.9253548 118.909625,34.0282581 113.841344,34.0384516 M126.682688,24.8540645 C126.682688,17.7593548 120.936938,12 113.841344,12 C106.74575,12 101,17.7593548 101,24.8540645 C101,31.953871 106.74575,37.708129 113.841344,37.708129 C120.936938,37.708129 126.682688,31.953871 126.682688,24.8540645" id="Fill-6"></path>
                            <path d="M161.841344,101.038452 C156.773063,101.028258 152.672594,96.9253548 152.662406,91.8540645 C152.672594,86.7827742 156.773063,82.679871 161.841344,82.6696774 C166.909625,82.679871 171.010094,86.7827742 171.020281,91.8540645 C171.010094,96.9253548 166.909625,101.028258 161.841344,101.038452 M174.682688,91.8540645 C174.682688,84.7593548 168.936938,79 161.841344,79 C154.74575,79 149,84.7593548 149,91.8540645 C149,98.953871 154.74575,104.708129 161.841344,104.708129 C168.936938,104.708129 174.682688,98.953871 174.682688,91.8540645" id="Fill-6"></path>
                            <path d="M60.8413438,22.0384516 C55.7730625,22.0282581 51.6725937,17.9253548 51.6624063,12.8540645 C51.6725937,7.78277419 55.7730625,3.67987097 60.8413438,3.66967742 C65.909625,3.67987097 70.0100938,7.78277419 70.0202813,12.8540645 C70.0100938,17.9253548 65.909625,22.0282581 60.8413438,22.0384516 M73.6826875,12.8540645 C73.6826875,5.75935484 67.9369375,0 60.8413438,0 C53.74575,0 48,5.75935484 48,12.8540645 C48,19.953871 53.74575,25.708129 60.8413438,25.708129 C67.9369375,25.708129 73.6826875,19.953871 73.6826875,12.8540645" id="Fill-6"></path>
                            <path d="M78.3806344,163.609129 L55.0869156,150.153645 L68.5344156,126.846097 L91.8281344,140.301581 L78.3806344,163.609129 Z M68.7840094,122.753387 C68.3663219,122.508742 67.8569469,122.442484 67.3883219,122.569903 C66.9247906,122.692226 66.5172906,123.003129 66.2778844,123.421065 L50.9966344,149.909 C50.4872594,150.785645 50.7877906,151.906935 51.6639156,152.411516 L78.1361344,167.701839 C78.5538219,167.946484 79.0581031,168.012742 79.5267281,167.885323 C79.9902594,167.763 80.3977594,167.452097 80.6422594,167.034161 L95.9235094,140.551323 C96.1629156,140.12829 96.2291344,139.62371 96.1017906,139.154806 C95.9795406,138.691 95.6688219,138.283258 95.2511344,138.04371 L68.7840094,122.753387 Z" id="Fill-8"></path>
                            <path d="M32.0224156,16.2037935 L40.6512281,32.6612774 L24.2086031,41.2952129 L15.5746969,24.837729 L32.0224156,16.2037935 Z M21.8145406,44.6234065 C22.2831656,45.5204387 23.3936031,45.8670194 24.2901031,45.3981161 L43.9825406,35.0567613 C44.4104156,34.8325032 44.7364156,34.4400516 44.8790406,33.9762452 C45.0216656,33.5124387 44.9758219,33.0027613 44.7516969,32.5746323 L34.4164781,12.8756 C33.9478531,11.9785677 32.8374156,11.6319871 31.9409156,12.1008903 L12.2484781,22.4422452 C11.3519781,22.9111484 11.0106969,24.0222452 11.4793219,24.9192774 L21.8145406,44.6234065 Z" id="Fill-12"></path>
                            <path d="M79.8333719,30.3340903 L77.2610281,59.1767355 L53.5852781,42.5255742 L79.8333719,30.3340903 Z M77.7500281,64.0033806 C78.2848719,64.3856387 78.9827156,64.4468 79.5735906,64.1715742 C80.1695594,63.8912516 80.5719656,63.3204129 80.6279969,62.6680258 L83.7657469,27.4951871 C83.8268719,26.8428 83.5314344,26.2057032 82.9965906,25.8336387 C82.4617469,25.4513806 81.7639031,25.3902194 81.1730281,25.6654452 L49.1639031,40.5327355 C48.5679344,40.8079613 48.1655281,41.3788 48.1044031,42.0311871 C48.0483719,42.688671 48.3438094,43.320671 48.8786531,43.6978323 L77.7500281,64.0033806 Z" id="Fill-14"></path>
                            <path d="M143.669266,158.358432 L157.891016,144.128239 L163.101922,163.567335 L143.669266,158.358432 Z M159.317266,138.812303 C158.685641,138.639013 158.008172,138.822497 157.549734,139.286303 L138.830203,158.011852 C138.366672,158.475658 138.188391,159.148432 138.356484,159.785529 C138.524578,160.417529 139.018672,160.911916 139.650297,161.08011 L165.220922,167.935271 C165.852547,168.108561 166.530016,167.925077 166.993547,167.461271 C167.457078,166.997465 167.635359,166.32469 167.467266,165.687594 L160.616172,140.106884 C160.442984,139.474884 159.948891,138.980497 159.317266,138.812303 L159.317266,138.812303 Z" id="Fill-16"></path>
                            <path d="M116.106475,99.0732645 L111.705475,122.365523 L93.7449125,106.907006 L116.106475,99.0732645 Z M111.720756,127.222748 C112.219944,127.650877 112.9076,127.778297 113.523944,127.564232 C114.140288,127.345071 114.598725,126.815006 114.720975,126.172813 L120.303725,96.6319097 C120.420881,95.9897161 120.191663,95.3271355 119.697569,94.8990065 C119.198381,94.4708774 118.510725,94.3434581 117.894381,94.5575226 L89.537475,104.491135 C88.9211313,104.710297 88.4626938,105.240361 88.3404438,105.882555 C88.2181938,106.529845 88.4525063,107.187329 88.9466,107.615458 L111.720756,127.222748 Z" id="Fill-22"></path>
                            <path d="M149.567175,41.6152903 L163.014675,64.9177419 L139.72605,78.3732258 L126.27855,55.0707742 L149.567175,41.6152903 Z M137.469518,81.7982581 C137.9738,82.6749032 139.094425,82.9756129 139.97055,82.4710323 L166.437675,67.1807097 C166.855362,66.9360645 167.166081,66.5334194 167.288331,66.0645161 C167.415675,65.6007097 167.349456,65.0910323 167.11005,64.6730968 L151.8288,38.1902581 C151.319425,37.3136129 150.1988,37.0129032 149.322675,37.5225806 L122.85555,52.8129032 C121.979425,53.3174839 121.678893,54.4387742 122.188268,55.3154194 L137.469518,81.7982581 Z" id="Fill-24"></path>
                            <path d="M35.6270117,55.3409625 L49.0745117,78.6434141 L25.7858867,92.098898 L12.3383867,68.7964463 L35.6270117,55.3409625 Z M23.5293555,95.5239302 C24.0336367,96.4005754 25.1542617,96.7012851 26.0303867,96.1967044 L52.4975117,80.9063818 C52.9151992,80.6617367 53.225918,80.2590915 53.348168,79.7901883 C53.4755117,79.3263818 53.409293,78.8167044 53.1698867,78.3987689 L37.8886367,51.9159302 C37.3792617,51.0392851 36.2586367,50.7385754 35.3825117,51.2482528 L8.91538674,66.5385754 C8.03926174,67.043156 7.73873049,68.1644463 8.24810549,69.0410915 L23.5293555,95.5239302 Z" id="Fill-24" transform="translate(30.705873, 73.720699) rotate(27.000000) translate(-30.705873, -73.720699) "></path>
                            <path d="M112.161875,164.281394 C106.141063,164.2712 101.271438,159.398684 101.26125,153.374297 C101.271438,147.34991 106.141063,142.477394 112.161875,142.4672 C118.182688,142.477394 123.052312,147.34991 123.0625,153.374297 C123.052312,159.398684 118.182688,164.2712 112.161875,164.281394 M112.161875,138.797523 C104.11375,138.797523 97.59375,145.321394 97.59375,153.374297 C97.59375,161.422103 104.11375,167.951071 112.161875,167.951071 C120.21,167.951071 126.73,161.422103 126.73,153.374297 C126.73,145.321394 120.21,138.797523 112.161875,138.797523" id="Fill-26"></path>
                        </g>
                    </g>
                    <circle id="Oval" cx="114" cy="25" r="11"></circle>
                    <circle id="Oval" cx="71" cy="85" r="11"></circle>
                    <circle id="Oval" cx="140" cy="115" r="11"></circle>
                    <circle id="Oval" cx="162" cy="92" r="11"></circle>
                </g>
                <g id="icon/navigation/arrow/right/32" transform="translate(464.000000, 261.000000) rotate(-360.000000) translate(-464.000000, -261.000000) translate(448.000000, 245.000000)">
                    <mask id="mask-2" fill="white">
                        <use xlink:href="#path-1"></use>
                    </mask>
                    <use id="icon-color" fill="#F3F3F3" fill-rule="evenodd" xlink:href="#path-1"></use>
                </g>
                <g id="Group-3" transform="translate(649.000000, 219.000000)" fill="#FFFFFF">
                    <g id="Group-31">
                        <g id="Group-30">
                            <path d="M14.568125,70.483871 C8.5473125,70.4736774 3.6776875,65.6011613 3.6675,59.5767742 C3.6776875,53.5523871 8.5473125,48.679871 14.568125,48.6696774 C20.5889375,48.679871 25.4585625,53.5523871 25.46875,59.5767742 C25.4585625,65.6011613 20.5889375,70.4736774 14.568125,70.483871 M14.568125,45 C6.52,45 0,51.523871 0,59.5767742 C0,67.6245806 6.52,74.1535484 14.568125,74.1535484 C22.61625,74.1535484 29.13625,67.6245806 29.13625,59.5767742 C29.13625,51.523871 22.61625,45 14.568125,45" id="Fill-2"></path>
                            <path d="M39.374865,68.6103964 L53.596615,54.3802028 L58.8075213,73.8192996 L39.374865,68.6103964 Z M63.172865,75.9395577 L56.3217713,50.358848 C56.1485838,49.726848 55.65449,49.2324609 55.022865,49.0642674 C54.39124,48.890977 53.7137713,49.0744609 53.2553338,49.5382674 L34.5358025,68.2638157 C34.0722713,68.7276222 33.89399,69.4003964 34.0620838,70.0374932 C34.2301775,70.6694932 34.7242713,71.1638803 35.3558963,71.3320738 L60.9265213,78.1872351 C61.5581463,78.3554287 62.235615,78.1719448 62.6991463,77.7132351 C63.1626775,77.2494287 63.3409588,76.5715577 63.172865,75.9395577 L63.172865,75.9395577 Z" id="Fill-4" transform="translate(48.617474, 63.624327) rotate(-26.000000) translate(-48.617474, -63.624327) "></path>
                            <path d="M14.8413438,32.0384516 C9.7730625,32.0282581 5.67259375,27.9253548 5.66240625,22.8540645 C5.67259375,17.7827742 9.7730625,13.679871 14.8413438,13.6696774 C19.909625,13.679871 24.0100938,17.7827742 24.0202813,22.8540645 C24.0100938,27.9253548 19.909625,32.0282581 14.8413438,32.0384516 M27.6826875,22.8540645 C27.6826875,15.7593548 21.9369375,10 14.8413438,10 C7.74575,10 2,15.7593548 2,22.8540645 C2,29.953871 7.74575,35.708129 14.8413438,35.708129 C21.9369375,35.708129 27.6826875,29.953871 27.6826875,22.8540645" id="Fill-6"></path>
                            <path d="M61.6321055,41.1026523 L38.3383867,27.6471685 L51.7858867,4.33962007 L75.0796055,17.7951039 L61.6321055,41.1026523 Z M52.0354805,0.246910394 C51.617793,0.00226523297 51.108418,-0.0639928315 50.639793,0.0634265233 C50.1762617,0.185749104 49.7687617,0.49665233 49.5293555,0.914587814 L34.2481055,27.4025233 C33.7387305,28.2791685 34.0392617,29.4004588 34.9153867,29.9050394 L61.3876055,45.195362 C61.805293,45.4400072 62.3095742,45.5062652 62.7781992,45.3788459 C63.2417305,45.2565233 63.6492305,44.9456201 63.8937305,44.5276846 L79.1749805,18.0448459 C79.4143867,17.6218136 79.4806055,17.117233 79.3532617,16.6483297 C79.2310117,16.1845233 78.920293,15.7767814 78.5026055,15.537233 L52.0354805,0.246910394 Z" id="Fill-8"></path>
                        </g>
                    </g>
                    <circle id="Oval" cx="15" cy="23" r="11"></circle>
                </g>
                <text id="Population" font-family="IBMPlexSans, IBM Plex Sans" font-size="28" font-weight="normal" line-spacing="20" fill="#FFFFFF">
                    <tspan x="194.5" y="382">Population</tspan>
                </text>
                <text id="Sample" font-family="IBMPlexSans, IBM Plex Sans" font-size="28" font-weight="normal" line-spacing="20" fill="#FFFFFF">
                    <tspan x="641" y="382">Sample</tspan>
                </text>
            </g>
        </g>
    </g>
</svg>