<svg width="928" height="522" xmlns="http://www.w3.org/2000/svg" xmlns:xlink="http://www.w3.org/1999/xlink"><defs><path id="a" d="M18 6l-1.4 1.4 7.6 7.6H3v2h21.2l-7.6 7.6L18 26l10-10z"/></defs><g fill="none" fill-rule="evenodd"><path fill="#171717" d="M0 0h928v522H0z"/><g transform="translate(177 135)" fill="#FFF"><path d="M25.6 164.3a11 11 0 1 1 0-21.9 11 11 0 0 1 0 21.9m0-25.5a14.6 14.6 0 1 0 0 29.1 14.6 14.6 0 0 0 0-29.1M40.6 127.5a11 11 0 1 1 0-21.8 11 11 0 0 1 0 21.8m0-25.5a14.6 14.6 0 1 0 0 29.1 14.6 14.6 0 0 0 0-29.1M97.5 75.7L108 58.5l9.8 17.6-20.2-.4zm24.9 1.4l-12.8-23.2a1.8 1.8 0 0 0-3.2 0L92.8 76.4a1.8 1.8 0 0 0 1.5 2.8l26.5.5c.6 0 1.2-.4 1.6-1 .3-.5.3-1.2 0-1.7zM71.4 93.6a9.2 9.2 0 1 1 0-18.3 9.2 9.2 0 0 1 0 18.3m12.9-9.1a12.8 12.8 0 1 0-25.7 0 12.8 12.8 0 0 0 25.7 0M139.8 124a9.2 9.2 0 1 1 0-18.4 9.2 9.2 0 0 1 0 18.4m12.9-9.1a12.8 12.8 0 1 0-25.7 0 12.8 12.8 0 0 0 25.7 0M113.8 34a9.2 9.2 0 1 1 0-18.4 9.2 9.2 0 0 1 0 18.4m12.9-9.1a12.8 12.8 0 1 0-25.7 0 12.8 12.8 0 0 0 25.7 0M161.8 101a9.2 9.2 0 1 1 0-18.4 9.2 9.2 0 0 1 0 18.4m12.9-9.1a12.8 12.8 0 1 0-25.7 0 12.8 12.8 0 0 0 25.7 0M60.8 22a9.2 9.2 0 1 1 0-18.4 9.2 9.2 0 0 1 0 18.4M73.7 13a12.8 12.8 0 1 0-25.7 0 12.8 12.8 0 0 0 25.7 0M78.4 163.6L55 150.2l13.4-23.4 23.3 13.5-13.4 23.3zm-9.6-40.8a1.8 1.8 0 0 0-2.5.6L51 150c-.5.9-.2 2 .7 2.5L78 167.7c.5.2 1 .3 1.4.2.5-.1.9-.4 1.1-.9L96 140.6a1.9 1.9 0 0 0-.6-2.6l-26.5-15.2zM32 16.2l8.7 16.5-16.5 8.6-8.6-16.5L32 16.2zM21.8 44.6c.5 1 1.6 1.3 2.5.8L44 35.1a1.8 1.8 0 0 0 .8-2.5L34.4 12.9A1.8 1.8 0 0 0 32 12L12.2 22.4c-.8.5-1.2 1.6-.7 2.5l10.3 19.7zM79.8 30.3l-2.5 28.9-23.7-16.7 26.2-12.2zm-2 33.7c.5.4 1.2.4 1.8.2.6-.3 1-.9 1-1.5l3.2-35.2c0-.7-.3-1.3-.8-1.7-.5-.3-1.2-.4-1.8-.1l-32 14.8a1.8 1.8 0 0 0-.3 3.2L77.8 64zM143.7 158.4l14.2-14.3 5.2 19.5-19.4-5.2zm15.6-19.6c-.6-.2-1.3 0-1.8.5L138.8 158a1.8 1.8 0 0 0 .9 3l25.5 7a1.8 1.8 0 0 0 2.3-2.3l-6.9-25.6c-.2-.6-.7-1.1-1.3-1.3zM116.1 99l-4.4 23.4-18-15.5 22.4-7.8zm-4.4 28.2a1.8 1.8 0 0 0 3-1l5.6-29.6c.1-.6-.1-1.3-.6-1.7-.5-.4-1.2-.6-1.8-.3l-28.4 9.9c-.6.2-1 .7-1.2 1.4 0 .6.2 1.3.6 1.7l22.8 19.6zM149.6 41.6L163 65l-23.3 13.5L126.3 55l23.3-13.5zm-12.1 40.2c.5.9 1.6 1.2 2.5.7l26.4-15.3a1.8 1.8 0 0 0 .7-2.5l-15.3-26.5a1.8 1.8 0 0 0-2.5-.7L123 52.8c-1 .5-1.2 1.6-.7 2.5l15.3 26.5zM43.4 59.6l1.4 26.8L18 88l-1.4-27 26.8-1.3zm-29 30.3c0 1 1 1.8 2 1.7L46.8 90a1.8 1.8 0 0 0 1.7-2L47 57.7c0-1-1-1.8-2-1.8l-30.4 1.6c-1 0-1.8 1-1.8 2l1.6 30.5zM112.2 164.3a11 11 0 1 1 0-21.9 11 11 0 0 1 0 21.9m0-25.5a14.6 14.6 0 1 0 0 29.1 14.6 14.6 0 0 0 0-29.1"/><circle cx="114" cy="25" r="11"/><circle cx="71" cy="85" r="11"/><circle cx="140" cy="115" r="11"/><circle cx="162" cy="92" r="11"/></g><use fill="#F3F3F3" xlink:href="#a" transform="translate(448 245)"/><g transform="translate(649 219)" fill="#FFF"><path d="M14.6 70.5a11 11 0 1 1 0-21.8 11 11 0 0 1 0 21.8m0-25.5a14.6 14.6 0 1 0 0 29.1 14.6 14.6 0 0 0 0-29.1M42.5 72.2l6.5-19 13.2 15.1-19.7 3.9zm24.6-3.9l-17.4-20a1.8 1.8 0 0 0-3 .6L38 74a1.8 1.8 0 0 0 2 2.5l26-5c.7-.2 1.2-.7 1.5-1.3.2-.6 0-1.3-.4-1.8zM14.8 32a9.2 9.2 0 1 1 0-18.4 9.2 9.2 0 0 1 0 18.4M27.7 23a12.8 12.8 0 1 0-25.7 0 12.8 12.8 0 0 0 25.7 0M61.6 41.1L38.3 27.6 51.8 4.3 75 17.8 61.6 41.1zM52 .2a1.8 1.8 0 0 0-2.5.7L34.2 27.4c-.5.9-.2 2 .7 2.5l26.5 15.3c.4.2 1 .3 1.4.2.4-.1.8-.5 1-.9L79.3 18a1.9 1.9 0 0 0-.7-2.5L52 .2z"/><circle cx="15" cy="23" r="11"/></g><text font-family="IBMPlexSans, IBM Plex Sans" font-size="28" fill="#FFF"><tspan x="194.5" y="382">Population</tspan></text><text font-family="IBMPlexSans, IBM Plex Sans" font-size="28" fill="#FFF"><tspan x="641" y="382">Sample</tspan></text></g></svg>